<svg version="1.1" viewBox="0.0 0.0 208.0 208.0" fill="none" stroke="none" stroke-linecap="square" stroke-miterlimit="10" xmlns:xlink="http://www.w3.org/1999/xlink" xmlns="http://www.w3.org/2000/svg"><clipPath id="p.0"><path d="m0 0l208.0 0l0 208.0l-208.0 0l0 -208.0z" clip-rule="nonzero"/></clipPath><g clip-path="url(#p.0)"><path fill="#000000" fill-opacity="0.0" d="m0 0l208.0 0l0 208.0l-208.0 0z" fill-rule="evenodd"/><path fill="#000000" fill-opacity="0.0" d="m96.0 208.0l0 -208.0315" fill-rule="evenodd"/><path stroke="#cccccc" stroke-width="1.0" stroke-linejoin="round" stroke-linecap="butt" d="m96.0 208.0l0 -202.0315" fill-rule="evenodd"/><path fill="#cccccc" stroke="#cccccc" stroke-width="1.0" stroke-linecap="butt" d="m97.65173 5.9685035l-1.6517334 -4.5380974l-1.6517334 4.5380974z" fill-rule="evenodd"/><path fill="#000000" fill-opacity="0.0" d="m0 112.0l208.0 0" fill-rule="evenodd"/><path stroke="#b7b7b7" stroke-width="1.0" stroke-linejoin="round" stroke-linecap="butt" d="m0 112.0l202.0 0" fill-rule="evenodd"/><path fill="#b7b7b7" stroke="#b7b7b7" stroke-width="1.0" stroke-linecap="butt" d="m202.0 113.65173l4.538101 -1.6517334l-4.538101 -1.6517334z" fill-rule="evenodd"/><path fill="#000000" fill-opacity="0.0" d="m88.0 112.0l0 0c0 -4.4182816 3.5817184 -8.0 8.0 -8.0l0 0c2.1217346 0 4.156563 0.84285736 5.6568527 2.3431473c1.5002899 1.5002899 2.3431473 3.535118 2.3431473 5.6568527l0 0c0 4.4182816 -3.5817184 8.0 -8.0 8.0l0 0c-4.4182816 0 -8.0 -3.5817184 -8.0 -8.0z" fill-rule="evenodd"/><path stroke="#000000" stroke-width="1.0" stroke-linejoin="round" stroke-linecap="butt" d="m88.0 112.0l0 0c0 -4.4182816 3.5817184 -8.0 8.0 -8.0l0 0c2.1217346 0 4.156563 0.84285736 5.6568527 2.3431473c1.5002899 1.5002899 2.3431473 3.535118 2.3431473 5.6568527l0 0c0 4.4182816 -3.5817184 8.0 -8.0 8.0l0 0c-4.4182816 0 -8.0 -3.5817184 -8.0 -8.0z" fill-rule="evenodd"/><path fill="#000000" fill-opacity="0.0" d="m80.0 112.0l0 0c0 -8.8365555 7.1634445 -16.0 16.0 -16.0l0 0c4.2434616 0 8.313126 1.6857071 11.313705 4.6862946c3.0005875 3.0005798 4.6862946 7.070244 4.6862946 11.313705l0 0c0 8.8365555 -7.1634445 16.0 -16.0 16.0l0 0c-8.8365555 0 -16.0 -7.1634445 -16.0 -16.0z" fill-rule="evenodd"/><path stroke="#000000" stroke-width="1.0" stroke-linejoin="round" stroke-linecap="butt" d="m80.0 112.0l0 0c0 -8.8365555 7.1634445 -16.0 16.0 -16.0l0 0c4.2434616 0 8.313126 1.6857071 11.313705 4.6862946c3.0005875 3.0005798 4.6862946 7.070244 4.6862946 11.313705l0 0c0 8.8365555 -7.1634445 16.0 -16.0 16.0l0 0c-8.8365555 0 -16.0 -7.1634445 -16.0 -16.0z" fill-rule="evenodd"/><path fill="#000000" fill-opacity="0.0" d="m72.0 112.0l0 0c0 -13.254837 10.745163 -24.0 24.0 -24.0l0 0c6.365196 0 12.469688 2.5285645 16.970566 7.029434c4.5008698 4.5008774 7.029434 10.60537 7.029434 16.970566l0 0c0 13.254837 -10.745163 24.0 -24.0 24.0l0 0c-13.254837 0 -24.0 -10.745163 -24.0 -24.0z" fill-rule="evenodd"/><path stroke="#000000" stroke-width="1.0" stroke-linejoin="round" stroke-linecap="butt" d="m72.0 112.0l0 0c0 -13.254837 10.745163 -24.0 24.0 -24.0l0 0c6.365196 0 12.469688 2.5285645 16.970566 7.029434c4.5008698 4.5008774 7.029434 10.60537 7.029434 16.970566l0 0c0 13.254837 -10.745163 24.0 -24.0 24.0l0 0c-13.254837 0 -24.0 -10.745163 -24.0 -24.0z" fill-rule="evenodd"/><path fill="#000000" fill-opacity="0.0" d="m64.0 112.0l0 0c0 -17.673111 14.326889 -32.0 32.0 -32.0l0 0c8.486931 0 16.626251 3.3714218 22.627419 9.3725815c6.0011597 6.0011673 9.3725815 14.140488 9.3725815 22.627419l0 0c0 17.673111 -14.326889 32.0 -32.0 32.0l0 0c-17.673111 0 -32.0 -14.326889 -32.0 -32.0z" fill-rule="evenodd"/><path stroke="#000000" stroke-width="1.0" stroke-linejoin="round" stroke-linecap="butt" d="m64.0 112.0l0 0c0 -17.673111 14.326889 -32.0 32.0 -32.0l0 0c8.486931 0 16.626251 3.3714218 22.627419 9.3725815c6.0011597 6.0011673 9.3725815 14.140488 9.3725815 22.627419l0 0c0 17.673111 -14.326889 32.0 -32.0 32.0l0 0c-17.673111 0 -32.0 -14.326889 -32.0 -32.0z" fill-rule="evenodd"/><path fill="#000000" fill-opacity="0.0" d="m56.0 112.0l0 0c0 -22.091393 17.908607 -40.0 40.0 -40.0l0 0c10.608658 0 20.782814 4.2142715 28.284271 11.715729c7.5014496 7.501457 11.715729 17.675613 11.715729 28.284271l0 0c0 22.091385 -17.908607 40.0 -40.0 40.0l0 0c-22.091393 0 -40.0 -17.908615 -40.0 -40.0z" fill-rule="evenodd"/><path stroke="#000000" stroke-width="1.0" stroke-linejoin="round" stroke-linecap="butt" d="m56.0 112.0l0 0c0 -22.091393 17.908607 -40.0 40.0 -40.0l0 0c10.608658 0 20.782814 4.2142715 28.284271 11.715729c7.5014496 7.501457 11.715729 17.675613 11.715729 28.284271l0 0c0 22.091385 -17.908607 40.0 -40.0 40.0l0 0c-22.091393 0 -40.0 -17.908615 -40.0 -40.0z" fill-rule="evenodd"/><path fill="#000000" fill-opacity="0.0" d="m48.0 112.0l0 0c0 -26.509666 21.490334 -48.0 48.0 -48.0l0 0c12.730392 0 24.939377 5.057129 33.94113 14.058876c9.0017395 9.001747 14.058868 21.210732 14.058868 33.941124l0 0c0 26.509674 -21.490334 48.0 -48.0 48.0l0 0c-26.509666 0 -48.0 -21.490326 -48.0 -48.0z" fill-rule="evenodd"/><path stroke="#000000" stroke-width="1.0" stroke-linejoin="round" stroke-linecap="butt" d="m48.0 112.0l0 0c0 -26.509666 21.490334 -48.0 48.0 -48.0l0 0c12.730392 0 24.939377 5.057129 33.94113 14.058876c9.0017395 9.001747 14.058868 21.210732 14.058868 33.941124l0 0c0 26.509674 -21.490334 48.0 -48.0 48.0l0 0c-26.509666 0 -48.0 -21.490326 -48.0 -48.0z" fill-rule="evenodd"/><path fill="#000000" fill-opacity="0.0" d="m40.0 112.0l0 0c0 -30.927948 25.072052 -56.0 56.0 -56.0l0 0c14.852127 0 29.09594 5.8999825 39.597977 16.402023c10.502045 10.502037 16.402023 24.74585 16.402023 39.597977l0 0c0 30.927948 -25.072052 56.0 -56.0 56.0l0 0c-30.927948 0 -56.0 -25.072052 -56.0 -56.0z" fill-rule="evenodd"/><path stroke="#000000" stroke-width="1.0" stroke-linejoin="round" stroke-linecap="butt" d="m40.0 112.0l0 0c0 -30.927948 25.072052 -56.0 56.0 -56.0l0 0c14.852127 0 29.09594 5.8999825 39.597977 16.402023c10.502045 10.502037 16.402023 24.74585 16.402023 39.597977l0 0c0 30.927948 -25.072052 56.0 -56.0 56.0l0 0c-30.927948 0 -56.0 -25.072052 -56.0 -56.0z" fill-rule="evenodd"/><path fill="#000000" fill-opacity="0.0" d="m32.0 112.0l0 0c0 -35.346222 28.653774 -64.0 64.0 -64.0l0 0c16.973854 0 33.252502 6.742836 45.254837 18.745163c12.002319 12.002335 18.745163 28.280983 18.745163 45.254837l0 0c0 35.346222 -28.653778 64.0 -64.0 64.0l0 0c-35.346226 0 -64.0 -28.653778 -64.0 -64.0z" fill-rule="evenodd"/><path stroke="#000000" stroke-width="1.0" stroke-linejoin="round" stroke-linecap="butt" d="m32.0 112.0l0 0c0 -35.346222 28.653774 -64.0 64.0 -64.0l0 0c16.973854 0 33.252502 6.742836 45.254837 18.745163c12.002319 12.002335 18.745163 28.280983 18.745163 45.254837l0 0c0 35.346222 -28.653778 64.0 -64.0 64.0l0 0c-35.346226 0 -64.0 -28.653778 -64.0 -64.0z" fill-rule="evenodd"/><path fill="#000000" fill-opacity="0.0" d="m24.0 112.0l0 0c0 -39.764503 32.235497 -72.0 72.0 -72.0l0 0c19.095589 0 37.409073 7.5856934 50.911682 21.08831c13.5026245 13.5026245 21.088318 31.816101 21.088318 50.91169l0 0c0 39.764496 -32.235504 72.0 -72.0 72.0l0 0c-39.764503 0 -72.0 -32.235504 -72.0 -72.0z" fill-rule="evenodd"/><path stroke="#000000" stroke-width="1.0" stroke-linejoin="round" stroke-linecap="butt" d="m24.0 112.0l0 0c0 -39.764503 32.235497 -72.0 72.0 -72.0l0 0c19.095589 0 37.409073 7.5856934 50.911682 21.08831c13.5026245 13.5026245 21.088318 31.816101 21.088318 50.91169l0 0c0 39.764496 -32.235504 72.0 -72.0 72.0l0 0c-39.764503 0 -72.0 -32.235504 -72.0 -72.0z" fill-rule="evenodd"/><path fill="#000000" fill-opacity="0.0" d="m16.0 112.0l0 0c0 -44.182777 35.81722 -80.0 80.0 -80.0l0 0c21.217316 0 41.565628 8.428547 56.568542 23.431458c15.002914 15.002907 23.431458 35.351227 23.431458 56.568542l0 0c0 44.182785 -35.817215 80.0 -80.0 80.0l0 0c-44.18278 0 -80.0 -35.817215 -80.0 -80.0z" fill-rule="evenodd"/><path stroke="#000000" stroke-width="1.0" stroke-linejoin="round" stroke-linecap="butt" d="m16.0 112.0l0 0c0 -44.182777 35.81722 -80.0 80.0 -80.0l0 0c21.217316 0 41.565628 8.428547 56.568542 23.431458c15.002914 15.002907 23.431458 35.351227 23.431458 56.568542l0 0c0 44.182785 -35.817215 80.0 -80.0 80.0l0 0c-44.18278 0 -80.0 -35.817215 -80.0 -80.0z" fill-rule="evenodd"/><path fill="#000000" fill-opacity="0.0" d="m90.125984 106.37795l11.748032 0l0 11.244095l-11.748032 0z" fill-rule="evenodd"/><path fill="#000000" d="m93.594734 115.33795l-0.8125 0l0 -5.21875q-0.296875 0.28125 -0.78125 0.5625q-0.484375 0.28125 -0.859375 0.421875l0 -0.796875q0.6875 -0.328125 1.203125 -0.78125q0.515625 -0.453125 0.734375 -0.890625l0.515625 0l0 6.703125zm2.1097412 -3.296875q0 -1.1875 0.234375 -1.90625q0.25 -0.71875 0.71875 -1.109375q0.484375 -0.390625 1.21875 -0.390625q0.546875 0 0.9375 0.21875q0.40625 0.21875 0.671875 0.625q0.265625 0.40625 0.40625 1.0q0.15625 0.578125 0.15625 1.5625q0 1.171875 -0.234375 1.90625q-0.234375 0.71875 -0.71875 1.109375q-0.484375 0.390625 -1.21875 0.390625q-0.96875 0 -1.515625 -0.6875q-0.65625 -0.828125 -0.65625 -2.71875zm0.84375 0q0 1.640625 0.375 2.1875q0.390625 0.546875 0.953125 0.546875q0.5625 0 0.953125 -0.546875q0.390625 -0.546875 0.390625 -2.1875q0 -1.640625 -0.390625 -2.1875q-0.390625 -0.546875 -0.953125 -0.546875q-0.578125 0 -0.90625 0.484375q-0.421875 0.609375 -0.421875 2.25z" fill-rule="nonzero"/><path fill="#000000" fill-opacity="0.0" d="m103.42782 100.35433l5.0708694 0l0 9.795273l-5.0708694 0z" fill-rule="evenodd"/><path fill="#000000" d="m103.86532 106.70621l0.671875 -0.0625q0.09375 0.484375 0.328125 0.703125q0.25 0.203125 0.625 0.203125q0.328125 0 0.5625 -0.140625q0.25 -0.15625 0.40625 -0.40625q0.15625 -0.25 0.265625 -0.671875q0.109375 -0.421875 0.109375 -0.859375q0 -0.046875 -0.015625 -0.140625q-0.203125 0.34375 -0.578125 0.5625q-0.359375 0.203125 -0.78125 0.203125q-0.71875 0 -1.21875 -0.515625q-0.484375 -0.515625 -0.484375 -1.359375q0 -0.875 0.515625 -1.40625q0.515625 -0.53125 1.296875 -0.53125q0.546875 0 1.015625 0.296875q0.46875 0.296875 0.703125 0.859375q0.234375 0.5625 0.234375 1.609375q0 1.09375 -0.234375 1.75q-0.234375 0.65625 -0.703125 1.0q-0.46875 0.328125 -1.109375 0.328125q-0.671875 0 -1.09375 -0.375q-0.421875 -0.375 -0.515625 -1.046875zm2.875 -2.53125q0 -0.59375 -0.328125 -0.953125q-0.3125 -0.359375 -0.765625 -0.359375q-0.46875 0 -0.8125 0.390625q-0.34375 0.375 -0.34375 0.984375q0 0.546875 0.328125 0.890625q0.328125 0.34375 0.8125 0.34375q0.484375 0 0.796875 -0.34375q0.3125 -0.34375 0.3125 -0.953125z" fill-rule="nonzero"/><path fill="#000000" fill-opacity="0.0" d="m109.92388 95.35433l5.0708694 0l0 9.795273l-5.0708694 0z" fill-rule="evenodd"/><path fill="#000000" d="m111.34576 99.92496q-0.4375 -0.15625 -0.65625 -0.453125q-0.203125 -0.296875 -0.203125 -0.71875q0 -0.625 0.4375 -1.046875q0.453125 -0.421875 1.203125 -0.421875q0.75 0 1.203125 0.4375q0.453125 0.4375 0.453125 1.0625q0 0.390625 -0.203125 0.6875q-0.203125 0.296875 -0.640625 0.453125q0.53125 0.171875 0.796875 0.5625q0.28125 0.375 0.28125 0.90625q0 0.734375 -0.515625 1.234375q-0.515625 0.5 -1.359375 0.5q-0.859375 0 -1.375 -0.5q-0.515625 -0.5 -0.515625 -1.25q0 -0.5625 0.28125 -0.9375q0.28125 -0.375 0.8125 -0.515625zm-0.140625 -1.1875q0 0.40625 0.25 0.671875q0.265625 0.25 0.6875 0.25q0.40625 0 0.65625 -0.25q0.265625 -0.265625 0.265625 -0.640625q0 -0.375 -0.265625 -0.640625q-0.265625 -0.265625 -0.671875 -0.265625q-0.390625 0 -0.65625 0.265625q-0.265625 0.25 -0.265625 0.609375zm-0.234375 2.640625q0 0.296875 0.140625 0.578125q0.140625 0.28125 0.421875 0.4375q0.28125 0.15625 0.609375 0.15625q0.5 0 0.828125 -0.3125q0.328125 -0.328125 0.328125 -0.828125q0 -0.515625 -0.34375 -0.84375q-0.328125 -0.328125 -0.828125 -0.328125q-0.5 0 -0.828125 0.328125q-0.328125 0.328125 -0.328125 0.8125z" fill-rule="nonzero"/><path fill="#000000" fill-opacity="0.0" d="m116.17585 90.60105l5.0708694 0l0 9.795273l-5.0708694 0z" fill-rule="evenodd"/><path fill="#000000" d="m116.55085 93.29668l0 -0.671875l3.71875 0l0 0.546875q-0.546875 0.578125 -1.09375 1.546875q-0.53125 0.96875 -0.828125 1.984375q-0.203125 0.71875 -0.265625 1.578125l-0.71875 0q0 -0.671875 0.25 -1.625q0.265625 -0.96875 0.734375 -1.859375q0.484375 -0.890625 1.015625 -1.5l-2.8125 0z" fill-rule="nonzero"/><path fill="#000000" fill-opacity="0.0" d="m122.17585 84.603676l5.0708694 0l0 9.795273l-5.0708694 0z" fill-rule="evenodd"/><path fill="#000000" d="m126.160225 87.95555l-0.703125 0.0625q-0.09375 -0.421875 -0.265625 -0.609375q-0.28125 -0.296875 -0.703125 -0.296875q-0.328125 0 -0.59375 0.1875q-0.328125 0.234375 -0.515625 0.703125q-0.1875 0.46875 -0.203125 1.328125q0.25 -0.390625 0.609375 -0.578125q0.375 -0.1875 0.78125 -0.1875q0.703125 0 1.1875 0.515625q0.5 0.515625 0.5 1.34375q0 0.53125 -0.234375 1.0q-0.21875 0.46875 -0.625 0.71875q-0.40625 0.234375 -0.921875 0.234375q-0.890625 0 -1.453125 -0.640625q-0.546875 -0.65625 -0.546875 -2.140625q0 -1.65625 0.625 -2.40625q0.53125 -0.65625 1.4375 -0.65625q0.671875 0 1.09375 0.375q0.4375 0.375 0.53125 1.046875zm-2.875 2.46875q0 0.359375 0.15625 0.703125q0.15625 0.328125 0.421875 0.5q0.28125 0.171875 0.59375 0.171875q0.4375 0 0.75 -0.359375q0.328125 -0.359375 0.328125 -0.96875q0 -0.59375 -0.3125 -0.9375q-0.3125 -0.34375 -0.796875 -0.34375q-0.46875 0 -0.8125 0.34375q-0.328125 0.34375 -0.328125 0.890625z" fill-rule="nonzero"/><path fill="#000000" fill-opacity="0.0" d="m128.4252 80.10236l5.070862 0l0 9.795273l-5.070862 0z" fill-rule="evenodd"/><path fill="#000000" d="m128.75333 86.282364l0.75 -0.0625q0.078125 0.53125 0.375 0.8125q0.296875 0.265625 0.71875 0.265625q0.515625 0 0.859375 -0.375q0.359375 -0.390625 0.359375 -1.015625q0 -0.609375 -0.34375 -0.953125q-0.34375 -0.34375 -0.890625 -0.34375q-0.328125 0 -0.609375 0.15625q-0.265625 0.140625 -0.421875 0.390625l-0.671875 -0.078125l0.5625 -2.953125l2.84375 0l0 0.671875l-2.28125 0l-0.3125 1.546875q0.515625 -0.359375 1.078125 -0.359375q0.75 0 1.265625 0.515625q0.515625 0.515625 0.515625 1.34375q0 0.765625 -0.453125 1.34375q-0.546875 0.6875 -1.5 0.6875q-0.78125 0 -1.28125 -0.4375q-0.484375 -0.4375 -0.5625 -1.15625z" fill-rule="nonzero"/><path fill="#000000" fill-opacity="0.0" d="m134.67717 74.850395l5.070862 0l0 9.795273l-5.070862 0z" fill-rule="evenodd"/><path fill="#000000" d="m137.27092 82.530396l0 -1.375l-2.484375 0l0 -0.640625l2.609375 -3.71875l0.578125 0l0 3.71875l0.765625 0l0 0.640625l-0.765625 0l0 1.375l-0.703125 0zm0 -2.015625l0 -2.578125l-1.796875 2.578125l1.796875 0z" fill-rule="nonzero"/><path fill="#000000" fill-opacity="0.0" d="m139.4252 68.85302l5.070862 0l0 9.795273l-5.070862 0z" fill-rule="evenodd"/><path fill="#000000" d="m139.76895 75.017395l0.703125 -0.09375q0.109375 0.59375 0.40625 0.859375q0.296875 0.265625 0.703125 0.265625q0.5 0 0.84375 -0.34375q0.34375 -0.34375 0.34375 -0.84375q0 -0.484375 -0.328125 -0.796875q-0.3125 -0.328125 -0.796875 -0.328125q-0.203125 0 -0.5 0.078125l0.078125 -0.609375q0.078125 0 0.125 0q0.4375 0 0.796875 -0.234375q0.359375 -0.234375 0.359375 -0.71875q0 -0.390625 -0.265625 -0.640625q-0.25 -0.25 -0.671875 -0.25q-0.40625 0 -0.6875 0.265625q-0.265625 0.25 -0.34375 0.765625l-0.703125 -0.125q0.125 -0.703125 0.578125 -1.09375q0.46875 -0.390625 1.140625 -0.390625q0.46875 0 0.859375 0.203125q0.40625 0.203125 0.609375 0.546875q0.21875 0.34375 0.21875 0.734375q0 0.375 -0.203125 0.6875q-0.203125 0.296875 -0.59375 0.46875q0.515625 0.125 0.796875 0.5q0.28125 0.359375 0.28125 0.921875q0 0.75 -0.546875 1.28125q-0.546875 0.515625 -1.390625 0.515625q-0.75 0 -1.25 -0.453125q-0.5 -0.453125 -0.5625 -1.171875z" fill-rule="nonzero"/><path fill="#000000" fill-opacity="0.0" d="m145.67717 62.603676l5.070862 0l0 9.795273l-5.070862 0z" fill-rule="evenodd"/><path fill="#000000" d="m149.70842 69.6118l0 0.671875l-3.78125 0q-0.015625 -0.25 0.078125 -0.484375q0.140625 -0.390625 0.453125 -0.765625q0.328125 -0.375 0.921875 -0.875q0.9375 -0.765625 1.265625 -1.203125q0.328125 -0.453125 0.328125 -0.84375q0 -0.421875 -0.296875 -0.703125q-0.296875 -0.296875 -0.78125 -0.296875q-0.5 0 -0.8125 0.3125q-0.296875 0.296875 -0.3125 0.84375l-0.71875 -0.078125q0.078125 -0.8125 0.5625 -1.234375q0.484375 -0.421875 1.296875 -0.421875q0.828125 0 1.296875 0.453125q0.484375 0.453125 0.484375 1.140625q0 0.34375 -0.140625 0.671875q-0.140625 0.328125 -0.46875 0.703125q-0.3125 0.359375 -1.078125 1.0q-0.625 0.53125 -0.8125 0.71875q-0.171875 0.1875 -0.296875 0.390625l2.8125 0z" fill-rule="nonzero"/><path fill="#000000" fill-opacity="0.0" d="m150.92914 56.603676l5.070862 0l0 9.795273l-5.070862 0z" fill-rule="evenodd"/><path fill="#000000" d="m153.91351 64.283676l-0.703125 0l0 -4.484375q-0.25 0.25 -0.671875 0.5q-0.40625 0.234375 -0.734375 0.34375l0 -0.671875q0.59375 -0.28125 1.03125 -0.671875q0.4375 -0.390625 0.625 -0.765625l0.453125 0l0 5.75z" fill-rule="nonzero"/><path fill="#000000" fill-opacity="0.0" d="m192.49869 93.0l16.0 0l0 19.496063l-16.0 0z" fill-rule="evenodd"/><path fill="#666666" d="m200.10806 103.22188q0.171875 0 0.265625 0.171875q0.109375 0.15625 0.109375 0.4375q0 0.46875 -0.234375 0.828125q-0.78125 1.203125 -2.234375 1.203125q-0.625 0 -1.109375 -0.234375q-0.484375 -0.25 -0.796875 -0.71875q-0.765625 0.9375 -1.796875 0.9375q-0.734375 0 -1.15625 -0.421875q-0.421875 -0.421875 -0.421875 -1.125q0 -0.671875 0.296875 -1.078125q0.3125 -0.421875 0.875 -0.421875q0.46875 0 0.46875 0.359375q0 0.109375 -0.015625 0.375l-0.046875 0.5q0 0.40625 0.34375 0.40625q0.25 0 0.484375 -0.296875q0.234375 -0.296875 0.390625 -0.8125q0.15625 -0.53125 0.15625 -1.15625q0 -0.484375 -0.125 -0.8125q-0.109375 -0.328125 -0.296875 -0.328125q-0.140625 0 -0.203125 0.078125q-0.0625 0.078125 -0.140625 0.25q-0.078125 0.21875 -0.21875 0.34375q-0.125 0.125 -0.453125 0.125q-0.296875 0 -0.46875 -0.203125q-0.171875 -0.21875 -0.171875 -0.640625q0 -0.671875 0.40625 -1.0625q0.421875 -0.390625 1.0625 -0.390625q0.5625 0 1.015625 0.28125q0.453125 0.265625 0.703125 0.78125q0.390625 -0.53125 0.890625 -0.796875q0.5 -0.265625 0.984375 -0.265625q0.515625 0 0.78125 0.25q0.28125 0.234375 0.28125 0.765625q0 0.59375 -0.234375 0.9375q-0.21875 0.34375 -0.53125 0.34375q-0.296875 0 -0.40625 -0.125q-0.109375 -0.125 -0.15625 -0.34375q-0.03125 -0.15625 -0.09375 -0.234375q-0.046875 -0.09375 -0.171875 -0.09375q-0.15625 0 -0.34375 0.3125q-0.171875 0.296875 -0.3125 0.796875q-0.125 0.484375 -0.125 1.015625q0 0.59375 0.265625 0.96875q0.28125 0.359375 0.671875 0.359375q0.734375 0 1.453125 -1.0625q0.140625 -0.203125 0.359375 -0.203125z" fill-rule="nonzero"/><path fill="#000000" fill-opacity="0.0" d="m102.0 -4.9973755l16.0 0l0 25.795277l-16.0 0z" fill-rule="evenodd"/><path fill="#666666" d="m107.296875 1.5994989q0.3125 0 0.421875 0.078125q0.125 0.078125 0.125 0.265625q0 0.31250012 -0.34375 2.28125q-0.296875 1.875 -0.359375 2.21875q-0.484375 3.421875 -1.359375 5.421875q-0.859375 2.0 -2.296875 2.0q-0.6875 0 -1.109375 -0.421875q-0.421875 -0.421875 -0.421875 -1.09375q0 -0.625 0.28125 -1.28125q0.28125 -0.65625 1.0625 -1.5q0.78125 -0.84375 2.203125 -1.9375l0.046875 -0.3125q0.09375 -0.484375 0.21875 -1.40625q-0.28125 0.953125 -0.765625 1.453125q-0.46875 0.5 -1.0 0.5q-0.59375 0 -0.984375 -0.546875q-0.375 -0.5625 -0.375 -1.375q0 -1.0 0.125 -1.828125q0.140625 -0.84374976 0.453125 -1.7812498q0.125 -0.39062512 0.359375 -0.5625001q0.25 -0.171875 0.765625 -0.171875q0.296875 0 0.40625 0.09375q0.109375 0.078125 0.109375 0.265625q0 0.10937512 -0.140625 0.7187501q-0.140625 0.5 -0.21875 0.90625q-0.09375 0.54687476 -0.1875 1.0468748q-0.078125 0.5 -0.078125 0.8125q0 0.5 0.28125 0.5q0.203125 0 0.5 -0.390625q0.296875 -0.40625 0.640625 -1.21875q0.34375 -0.81249976 0.65625 -1.9999998q0.109375 -0.39062512 0.328125 -0.5625001q0.21875 -0.171875 0.65625 -0.171875zm-3.671875 10.96875q0.328125 0 0.734375 -0.78125q0.421875 -0.765625 0.84375 -2.5625q-1.03125 0.875 -1.5 1.578125q-0.453125 0.71875 -0.453125 1.25q0 0.234375 0.078125 0.375q0.09375 0.140625 0.296875 0.140625z" fill-rule="nonzero"/><path fill="#000000" fill-opacity="0.0" d="m0.43569553 110.149605l18.992126 0l0 15.275589l-18.992126 0z" fill-rule="evenodd"/><path fill="#000000" d="m3.3419456 117.7646q0 0.203125 -0.046875 0.28125q-0.046875 0.078125 -0.140625 0.078125l-2.171875 0q-0.09375 0 -0.140625 -0.078125q-0.046875 -0.09375 -0.046875 -0.28125q0 -0.203125 0.046875 -0.28125q0.046875 -0.078125 0.140625 -0.078125l2.171875 0q0.046875 0 0.078125 0.015625q0.03125 0.015625 0.046875 0.0625q0.03125 0.046875 0.046875 0.125q0.015625 0.0625 0.015625 0.15625zm5.184311 2.265625q0 0.109375 -0.015625 0.171875q-0.015625 0.0625 -0.046875 0.109375q-0.03125 0.046875 -0.0625 0.0625q-0.03125 0.015625 -0.0625 0.015625l-3.515625 0q-0.046875 0 -0.078125 -0.015625q-0.03125 -0.015625 -0.0625 -0.0625q-0.015625 -0.046875 -0.03125 -0.109375q-0.015625 -0.0625 -0.015625 -0.171875q0 -0.09375 0.015625 -0.15625q0.015625 -0.0625 0.03125 -0.109375q0.03125 -0.046875 0.0625 -0.0625q0.03125 -0.03125 0.078125 -0.03125l1.40625 0l0 -5.125l-1.3125 0.78125q-0.09375 0.046875 -0.15625 0.0625q-0.0625 0.015625 -0.09375 -0.015625q-0.03125 -0.046875 -0.046875 -0.125q-0.015625 -0.078125 -0.015625 -0.1875q0 -0.09375 0 -0.15625q0.015625 -0.0625 0.03125 -0.09375q0.015625 -0.046875 0.046875 -0.078125q0.03125 -0.03125 0.078125 -0.0625l1.546875 -1.0q0.015625 -0.015625 0.046875 -0.015625q0.03125 -0.015625 0.078125 -0.03125q0.046875 -0.015625 0.109375 -0.015625q0.0625 0 0.15625 0q0.125 0 0.203125 0.015625q0.09375 0 0.140625 0.03125q0.046875 0.015625 0.0625 0.046875q0.015625 0.015625 0.015625 0.046875l0 5.921875l1.21875 0q0.03125 0 0.0625 0.03125q0.046875 0.015625 0.0625 0.0625q0.03125 0.046875 0.046875 0.109375q0.015625 0.0625 0.015625 0.15625zm5.6040955 -3.015625q0 0.765625 -0.125 1.40625q-0.125 0.640625 -0.40625 1.109375q-0.28125 0.453125 -0.75 0.703125q-0.453125 0.25 -1.109375 0.25q-0.640625 0 -1.078125 -0.21875q-0.4375 -0.234375 -0.703125 -0.671875q-0.265625 -0.4375 -0.375 -1.078125q-0.109375 -0.640625 -0.109375 -1.46875q0 -0.78125 0.125 -1.421875q0.125 -0.640625 0.40625 -1.09375q0.28125 -0.46875 0.734375 -0.71875q0.46875 -0.25 1.125 -0.25q0.640625 0 1.078125 0.234375q0.4375 0.21875 0.703125 0.65625q0.265625 0.4375 0.375 1.078125q0.109375 0.640625 0.109375 1.484375zm-0.921875 0.0625q0 -0.515625 -0.03125 -0.90625q-0.03125 -0.40625 -0.109375 -0.703125q-0.0625 -0.3125 -0.1875 -0.53125q-0.109375 -0.234375 -0.265625 -0.375q-0.15625 -0.140625 -0.359375 -0.203125q-0.1875 -0.0625 -0.4375 -0.0625q-0.4375 0 -0.71875 0.203125q-0.28125 0.203125 -0.4375 0.578125q-0.15625 0.359375 -0.21875 0.859375q-0.046875 0.484375 -0.046875 1.046875q0 0.75 0.078125 1.28125q0.078125 0.515625 0.234375 0.859375q0.171875 0.328125 0.4375 0.484375q0.265625 0.140625 0.640625 0.140625q0.28125 0 0.5 -0.09375q0.234375 -0.09375 0.390625 -0.265625q0.15625 -0.171875 0.25 -0.40625q0.109375 -0.25 0.171875 -0.546875q0.0625 -0.296875 0.078125 -0.640625q0.03125 -0.34375 0.03125 -0.71875z" fill-rule="nonzero"/><path fill="#000000" fill-opacity="0.0" d="m178.02362 112.362206l18.992126 0l0 15.275589l-18.992126 0z" fill-rule="evenodd"/><path fill="#000000" d="m182.85175 122.24283q0 0.109375 -0.015625 0.171875q-0.015625 0.0625 -0.046875 0.109375q-0.03125 0.046875 -0.0625 0.0625q-0.03125 0.015625 -0.0625 0.015625l-3.515625 0q-0.046875 0 -0.078125 -0.015625q-0.03125 -0.015625 -0.0625 -0.0625q-0.015625 -0.046875 -0.03125 -0.109375q-0.015625 -0.0625 -0.015625 -0.171875q0 -0.09375 0.015625 -0.15625q0.015625 -0.0625 0.03125 -0.109375q0.03125 -0.046875 0.0625 -0.0625q0.03125 -0.03125 0.078125 -0.03125l1.40625 0l0 -5.125l-1.3125 0.78125q-0.09375 0.046875 -0.15625 0.0625q-0.0625 0.015625 -0.09375 -0.015625q-0.03125 -0.046875 -0.046875 -0.125q-0.015625 -0.078125 -0.015625 -0.1875q0 -0.09375 0 -0.15625q0.015625 -0.0625 0.03125 -0.09375q0.015625 -0.046875 0.046875 -0.078125q0.03125 -0.03125 0.078125 -0.0625l1.546875 -1.0q0.015625 -0.015625 0.046875 -0.015625q0.03125 -0.015625 0.078125 -0.03125q0.046875 -0.015625 0.109375 -0.015625q0.0625 0 0.15625 0q0.125 0 0.203125 0.015625q0.09375 0 0.140625 0.03125q0.046875 0.015625 0.0625 0.046875q0.015625 0.015625 0.015625 0.046875l0 5.921875l1.21875 0q0.03125 0 0.0625 0.03125q0.046875 0.015625 0.0625 0.0625q0.03125 0.046875 0.046875 0.109375q0.015625 0.0625 0.015625 0.15625zm5.6040955 -3.015625q0 0.765625 -0.125 1.40625q-0.125 0.640625 -0.40625 1.109375q-0.28125 0.453125 -0.75 0.703125q-0.453125 0.25 -1.109375 0.25q-0.640625 0 -1.078125 -0.21875q-0.4375 -0.234375 -0.703125 -0.671875q-0.265625 -0.4375 -0.375 -1.078125q-0.109375 -0.640625 -0.109375 -1.46875q0 -0.78125 0.125 -1.421875q0.125 -0.640625 0.40625 -1.09375q0.28125 -0.46875 0.734375 -0.71875q0.46875 -0.25 1.125 -0.25q0.640625 0 1.078125 0.234375q0.4375 0.21875 0.703125 0.65625q0.265625 0.4375 0.375 1.078125q0.109375 0.640625 0.109375 1.484375zm-0.921875 0.0625q0 -0.515625 -0.03125 -0.90625q-0.03125 -0.40625 -0.109375 -0.703125q-0.0625 -0.3125 -0.1875 -0.53125q-0.109375 -0.234375 -0.265625 -0.375q-0.15625 -0.140625 -0.359375 -0.203125q-0.1875 -0.0625 -0.4375 -0.0625q-0.4375 0 -0.71875 0.203125q-0.28125 0.203125 -0.4375 0.578125q-0.15625 0.359375 -0.21875 0.859375q-0.046875 0.484375 -0.046875 1.046875q0 0.75 0.078125 1.28125q0.078125 0.515625 0.234375 0.859375q0.171875 0.328125 0.4375 0.484375q0.265625 0.140625 0.640625 0.140625q0.28125 0 0.5 -0.09375q0.234375 -0.09375 0.390625 -0.265625q0.15625 -0.171875 0.25 -0.40625q0.109375 -0.25 0.171875 -0.546875q0.0625 -0.296875 0.078125 -0.640625q0.03125 -0.34375 0.03125 -0.71875z" fill-rule="nonzero"/><path fill="#000000" d="m174.04724 112.01312l0 0c0 -1.0436859 0.8460846 -1.8897629 1.8897705 -1.8897629l0 0c0.5011902 0 0.9818573 0.19909668 1.3362579 0.5534973c0.35440063 0.35440063 0.5534973 0.83506775 0.5534973 1.3362656l0 0c0 1.0436859 -0.84606934 1.8897629 -1.8897552 1.8897629l0 0c-1.0436859 0 -1.8897705 -0.84607697 -1.8897705 -1.8897629z" fill-rule="evenodd"/><path stroke="#000000" stroke-width="1.0" stroke-linejoin="round" stroke-linecap="butt" d="m174.04724 112.01312l0 0c0 -1.0436859 0.8460846 -1.8897629 1.8897705 -1.8897629l0 0c0.5011902 0 0.9818573 0.19909668 1.3362579 0.5534973c0.35440063 0.35440063 0.5534973 0.83506775 0.5534973 1.3362656l0 0c0 1.0436859 -0.84606934 1.8897629 -1.8897552 1.8897629l0 0c-1.0436859 0 -1.8897705 -0.84607697 -1.8897705 -1.8897629z" fill-rule="evenodd"/><path fill="#000000" d="m14.173228 112.0l0 0c0 -1.0436859 0.846076 -1.8897629 1.8897638 -1.8897629l0 0c0.5011959 0 0.9818649 0.19909668 1.3362656 0.5534973c0.35439873 0.35440063 0.5534973 0.83506775 0.5534973 1.3362656l0 0c0 1.0436859 -0.84607506 1.8897629 -1.8897629 1.8897629l0 0c-1.0436878 0 -1.8897638 -0.84607697 -1.8897638 -1.8897629z" fill-rule="evenodd"/><path stroke="#000000" stroke-width="1.0" stroke-linejoin="round" stroke-linecap="butt" d="m14.173228 112.0l0 0c0 -1.0436859 0.846076 -1.8897629 1.8897638 -1.8897629l0 0c0.5011959 0 0.9818649 0.19909668 1.3362656 0.5534973c0.35439873 0.35440063 0.5534973 0.83506775 0.5534973 1.3362656l0 0c0 1.0436859 -0.84607506 1.8897629 -1.8897629 1.8897629l0 0c-1.0436878 0 -1.8897638 -0.84607697 -1.8897638 -1.8897629z" fill-rule="evenodd"/></g></svg>