<?xml version="1.0" encoding="UTF-8" standalone="no"?>
<!-- Created with Inkscape (http://www.inkscape.org/) -->
<svg xmlns="http://www.w3.org/2000/svg" version="1.1" 
        viewBox="0,0 400,371" width="800" height="742">
  <defs>
    <marker
       markerUnits="strokeWidth"
       refX="0"
       refY="5"
       markerWidth="4"
       markerHeight="3"
       orient="auto"
       viewBox="0 0 10 10"
       id="ArrowEnd">
      <path
         d="M 0,0 L 10,5 L 0,10 L 0,0 z"
         id="path7" />
    </marker>
    <marker
       markerUnits="strokeWidth"
       refX="10"
       refY="5"
       markerWidth="4"
       markerHeight="3"
       orient="auto"
       viewBox="0 0 10 10"
       id="ArrowStart">
      <path
         d="M 10,0 L 0,5 L 10,10 L 10,0 z"
         id="path10" />
    </marker>
  </defs>
  <g
     transform="matrix(1.487827,0,0,1.487827,-115.8882,-1.429549)"
     id="g12">
    <path
       d="M 0,722.108 L 0,722.108 L 0,722.108 z"
       style="fill:#000000;fill-rule:evenodd;stroke:none"
       id="path14" />
    <path
       d="M 309.156,131.853 L 320.314,127.868 L 309.156,123.883 L 313.619,127.868"
       style="fill:#000000;fill-rule:evenodd;stroke:none"
       id="path18" />
    <path
       d="M 88.621,127.868 L 313.619,127.868"
       style="fill:none;stroke:#000000;stroke-width:0.99626398"
       id="path20" />
    <path
       d="M 205.105,19.832 L 201.12,8.67395 L 197.135,19.832 L 201.12,15.369"
       style="fill:#000000;fill-rule:evenodd;stroke:none"
       id="path24" />
    <path
       d="M 201.12,240.367 L 201.12,15.369"
       style="fill:none;stroke:#000000;stroke-width:0.99626398"
       id="path26" />
    <path
       d="M 242.221,131.355 L 242.221,124.381"
       style="fill:none;stroke:#000000;stroke-width:0.99626398"
       id="path28" />
    <path
       d="M 283.323,131.355 L 283.323,124.381"
       style="fill:none;stroke:#000000;stroke-width:0.99626398"
       id="path30" />
    <path
       d="M 244.3,140.706 C 244.3,139.52 243.471,138.509 242.38,138.509 C 241.896,138.509 241.463,138.673 241.1,139.033 L 241.1,137.09 C 241.303,137.15 241.637,137.209 241.962,137.209 C 243.187,137.209 243.912,136.312 243.912,136.183 C 243.912,136.123 243.874,136.073 243.786,136.073 C 243.776,136.073 243.756,136.073 243.706,136.103 C 243.507,136.193 243.019,136.408 242.351,136.408 C 241.952,136.408 241.494,136.334 241.026,136.113 C 240.946,136.083 240.926,136.083 240.906,136.083 C 240.806,136.083 240.8,136.163 240.8,136.322 L 240.8,139.271 C 240.8,139.45 240.806,139.53 240.946,139.53 C 241.016,139.53 241.036,139.5 241.075,139.44 C 241.185,139.281 241.553,138.708 242.36,138.708 C 242.878,138.708 243.127,139.191 243.207,139.38 C 243.366,139.749 243.4,140.137 243.4,140.635 C 243.4,140.984 243.387,141.581 243.147,142 C 242.908,142.389 242.539,142.627 242.081,142.627 C 241.354,142.627 240.786,142.109 240.616,141.532 C 240.646,141.542 240.676,141.608 240.785,141.608 C 241.114,141.608 241.299,141.331 241.299,141.064 C 241.299,140.825 241.124,140.608 240.785,140.608 C 240.646,140.608 240.299,140.674 240.299,141.104 C 240.299,141.961 240.986,142.927 242.1,142.927 C 243.256,142.927 244.299,141.971 244.299,140.705 L 244.3,140.706 z"
       style="fill:#000000;fill-rule:evenodd;stroke:none"
       id="path32" />
    <path
       d="M 281.2,136.332 C 281.2,136.093 281.229,136.108 281,136.108 C 280.382,136.71 279.506,136.708 279.187,136.708 L 279.187,137.008 C 279.387,137.008 279.979,137.019 280.5,136.76 L 280.5,141.921 C 280.5,142.28 280.47,142.408 279.565,142.408 L 279.246,142.408 L 279.246,142.708 C 279.595,142.678 280.461,142.678 280.86,142.678 C 281.259,142.678 282.125,142.678 282.474,142.708 L 282.474,142.408 L 282.155,142.408 C 281.258,142.408 281.199,142.296 281.199,141.921 L 281.2,136.332 z"
       style="fill:#000000;fill-rule:evenodd;stroke:none"
       id="path34" />
    <path
       d="M 287.9,139.52 C 287.9,138.723 287.848,137.926 287.484,137.189 C 287.026,136.233 286.209,136.108 285.79,136.108 C 285.192,136.108 284.465,136.359 284.057,137.258 C 283.738,137.945 283.7,138.723 283.7,139.52 C 283.7,140.267 283.739,141.164 284.137,141.921 C 284.565,142.728 285.293,142.927 285.781,142.927 C 286.319,142.927 287.076,142.718 287.514,141.771 C 287.833,141.084 287.9,140.307 287.9,139.519 L 287.9,139.52 z M 285.781,142.727 C 285.392,142.727 284.805,142.474 284.625,141.502 C 284.515,140.904 284.5,139.988 284.5,139.4 C 284.5,138.762 284.515,138.105 284.595,137.567 C 284.784,136.381 285.531,136.308 285.781,136.308 C 286.11,136.308 286.767,136.485 286.957,137.458 C 287.057,138.016 287.101,138.773 287.101,139.401 C 287.101,140.148 287.057,140.826 286.947,141.463 C 286.798,142.409 286.23,142.728 285.781,142.728 L 285.781,142.727 z"
       style="fill:#000000;fill-rule:evenodd;stroke:none"
       id="path36" />
    <path
       d="M 160.019,131.355 L 160.019,124.381"
       style="fill:none;stroke:#000000;stroke-width:0.99626398"
       id="path38" />
    <path
       d="M 118.917,131.355 L 118.917,124.381"
       style="fill:none;stroke:#000000;stroke-width:0.99626398"
       id="path40" />
    <path
       d="M 160.185,140.408 C 160.324,140.408 160.5,140.417 160.5,140.217 C 160.5,140.018 160.319,140.008 160.185,140.008 L 154.755,140.008 C 154.616,140.008 154.399,140.018 154.399,140.217 C 154.399,140.416 154.604,140.408 154.755,140.408 L 160.185,140.408 z"
       style="fill:#000000;fill-rule:evenodd;stroke:none"
       id="path42" />
    <path
       d="M 165.9,140.706 C 165.9,139.52 165.071,138.509 163.98,138.509 C 163.496,138.509 163.063,138.673 162.7,139.033 L 162.7,137.09 C 162.903,137.15 163.237,137.209 163.562,137.209 C 164.787,137.209 165.512,136.312 165.512,136.183 C 165.512,136.123 165.474,136.073 165.386,136.073 C 165.376,136.073 165.356,136.073 165.306,136.103 C 165.107,136.193 164.619,136.408 163.951,136.408 C 163.552,136.408 163.094,136.334 162.626,136.113 C 162.546,136.083 162.526,136.083 162.506,136.083 C 162.406,136.083 162.4,136.163 162.4,136.322 L 162.4,139.271 C 162.4,139.45 162.406,139.53 162.546,139.53 C 162.616,139.53 162.636,139.5 162.675,139.44 C 162.785,139.281 163.153,138.708 163.96,138.708 C 164.478,138.708 164.727,139.191 164.807,139.38 C 164.966,139.749 165,140.137 165,140.635 C 165,140.984 164.987,141.581 164.747,142 C 164.508,142.389 164.139,142.627 163.681,142.627 C 162.954,142.627 162.386,142.109 162.216,141.532 C 162.246,141.542 162.276,141.608 162.385,141.608 C 162.714,141.608 162.899,141.331 162.899,141.064 C 162.899,140.825 162.724,140.608 162.385,140.608 C 162.246,140.608 161.899,140.674 161.899,141.104 C 161.899,141.961 162.586,142.927 163.7,142.927 C 164.856,142.927 165.899,141.971 165.899,140.705 L 165.9,140.706 z"
       style="fill:#000000;fill-rule:evenodd;stroke:none"
       id="path44" />
    <path
       d="M 116.585,140.408 C 116.724,140.408 116.9,140.417 116.9,140.217 C 116.9,140.018 116.719,140.008 116.585,140.008 L 111.155,140.008 C 111.016,140.008 110.799,140.018 110.799,140.217 C 110.799,140.416 111.004,140.408 111.155,140.408 L 116.585,140.408 z"
       style="fill:#000000;fill-rule:evenodd;stroke:none"
       id="path46" />
    <path
       d="M 120.7,136.332 C 120.7,136.093 120.729,136.108 120.5,136.108 C 119.882,136.71 119.006,136.708 118.687,136.708 L 118.687,137.008 C 118.887,137.008 119.479,137.019 120,136.76 L 120,141.921 C 120,142.28 119.97,142.408 119.065,142.408 L 118.746,142.408 L 118.746,142.708 C 119.095,142.678 119.961,142.678 120.36,142.678 C 120.759,142.678 121.625,142.678 121.974,142.708 L 121.974,142.408 L 121.655,142.408 C 120.758,142.408 120.699,142.296 120.699,141.921 L 120.7,136.332 z"
       style="fill:#000000;fill-rule:evenodd;stroke:none"
       id="path48" />
    <path
       d="M 127.5,139.52 C 127.5,138.723 127.448,137.926 127.084,137.189 C 126.626,136.233 125.809,136.108 125.39,136.108 C 124.792,136.108 124.065,136.359 123.657,137.258 C 123.338,137.945 123.3,138.723 123.3,139.52 C 123.3,140.267 123.339,141.164 123.737,141.921 C 124.165,142.728 124.893,142.927 125.381,142.927 C 125.919,142.927 126.676,142.718 127.114,141.771 C 127.433,141.084 127.5,140.307 127.5,139.519 L 127.5,139.52 z M 125.381,142.727 C 124.992,142.727 124.405,142.474 124.225,141.502 C 124.115,140.904 124.1,139.988 124.1,139.4 C 124.1,138.762 124.115,138.105 124.195,137.567 C 124.384,136.381 125.131,136.308 125.381,136.308 C 125.71,136.308 126.367,136.485 126.557,137.458 C 126.657,138.016 126.701,138.773 126.701,139.401 C 126.701,140.148 126.657,140.826 126.547,141.463 C 126.398,142.409 125.83,142.728 125.381,142.728 L 125.381,142.727 z"
       style="fill:#000000;fill-rule:evenodd;stroke:none"
       id="path50" />
    <path
       d="M 204.607,86.767 L 197.633,86.767"
       style="fill:none;stroke:#000000;stroke-width:0.99626398"
       id="path52" />
    <path
       d="M 204.607,45.665 L 197.633,45.665"
       style="fill:none;stroke:#000000;stroke-width:0.99626398"
       id="path54" />
    <path
       d="M 192.2,87.9059 C 192.2,86.72 191.371,85.709 190.28,85.709 C 189.796,85.709 189.363,85.873 189,86.233 L 189,84.29 C 189.203,84.35 189.537,84.409 189.862,84.409 C 191.087,84.409 191.812,83.512 191.812,83.383 C 191.812,83.323 191.774,83.2729 191.686,83.2729 C 191.676,83.2729 191.656,83.2729 191.606,83.303 C 191.407,83.3929 190.919,83.608 190.251,83.608 C 189.852,83.608 189.394,83.534 188.926,83.313 C 188.846,83.283 188.826,83.283 188.806,83.283 C 188.706,83.283 188.7,83.363 188.7,83.522 L 188.7,86.4709 C 188.7,86.65 188.706,86.73 188.846,86.73 C 188.916,86.73 188.936,86.7 188.975,86.64 C 189.085,86.481 189.453,85.908 190.26,85.908 C 190.778,85.908 191.027,86.391 191.107,86.58 C 191.266,86.949 191.3,87.337 191.3,87.835 C 191.3,88.184 191.287,88.7809 191.047,89.2 C 190.808,89.589 190.439,89.827 189.981,89.827 C 189.254,89.827 188.686,89.309 188.516,88.732 C 188.546,88.7419 188.576,88.808 188.685,88.808 C 189.014,88.808 189.199,88.5309 189.199,88.264 C 189.199,88.025 189.024,87.808 188.685,87.808 C 188.546,87.808 188.199,87.874 188.199,88.304 C 188.199,89.1609 188.886,90.127 190,90.127 C 191.156,90.127 192.199,89.171 192.199,87.905 L 192.2,87.9059 z"
       style="fill:#000000;fill-rule:evenodd;stroke:none"
       id="path56" />
    <path
       d="M 185.5,42.532 C 185.5,42.293 185.529,42.308 185.3,42.308 C 184.682,42.91 183.806,42.908 183.487,42.908 L 183.487,43.2079 C 183.687,43.2079 184.279,43.219 184.8,42.96 L 184.8,48.121 C 184.8,48.48 184.77,48.608 183.865,48.608 L 183.546,48.608 L 183.546,48.908 C 183.895,48.878 184.761,48.878 185.16,48.878 C 185.559,48.878 186.425,48.878 186.774,48.908 L 186.774,48.608 L 186.455,48.608 C 185.558,48.608 185.499,48.496 185.499,48.121 L 185.5,42.532 z"
       style="fill:#000000;fill-rule:evenodd;stroke:none"
       id="path58" />
    <path
       d="M 192.3,45.72 C 192.3,44.923 192.248,44.126 191.884,43.389 C 191.426,42.433 190.609,42.308 190.19,42.308 C 189.592,42.308 188.865,42.559 188.457,43.4579 C 188.138,44.145 188.1,44.923 188.1,45.72 C 188.1,46.467 188.139,47.364 188.537,48.121 C 188.965,48.928 189.693,49.127 190.181,49.127 C 190.719,49.127 191.476,48.918 191.914,47.9709 C 192.233,47.284 192.3,46.507 192.3,45.719 L 192.3,45.72 z M 190.181,48.9269 C 189.792,48.9269 189.205,48.674 189.025,47.702 C 188.915,47.1039 188.9,46.188 188.9,45.6 C 188.9,44.962 188.915,44.305 188.995,43.767 C 189.184,42.581 189.931,42.508 190.181,42.508 C 190.51,42.508 191.167,42.685 191.357,43.658 C 191.457,44.2159 191.501,44.973 191.501,45.601 C 191.501,46.348 191.457,47.026 191.347,47.663 C 191.198,48.6089 190.63,48.928 190.181,48.928 L 190.181,48.9269 z"
       style="fill:#000000;fill-rule:evenodd;stroke:none"
       id="path60" />
    <path
       d="M 204.607,168.969 L 197.633,168.969"
       style="fill:none;stroke:#000000;stroke-width:0.99626398"
       id="path62" />
    <path
       d="M 204.607,210.071 L 197.633,210.071"
       style="fill:none;stroke:#000000;stroke-width:0.99626398"
       id="path64" />
    <path
       d="M 186.485,169.508 C 186.624,169.508 186.8,169.517 186.8,169.317 C 186.8,169.118 186.619,169.108 186.485,169.108 L 181.055,169.108 C 180.916,169.108 180.699,169.118 180.699,169.317 C 180.699,169.516 180.904,169.508 181.055,169.508 L 186.485,169.508 z"
       style="fill:#000000;fill-rule:evenodd;stroke:none"
       id="path66" />
    <path
       d="M 192.2,169.806 C 192.2,168.62 191.371,167.609 190.28,167.609 C 189.796,167.609 189.363,167.773 189,168.133 L 189,166.19 C 189.203,166.25 189.537,166.309 189.862,166.309 C 191.087,166.309 191.812,165.412 191.812,165.283 C 191.812,165.223 191.774,165.173 191.686,165.173 C 191.676,165.173 191.656,165.173 191.606,165.203 C 191.407,165.293 190.919,165.508 190.251,165.508 C 189.852,165.508 189.394,165.434 188.926,165.213 C 188.846,165.183 188.826,165.183 188.806,165.183 C 188.706,165.183 188.7,165.263 188.7,165.422 L 188.7,168.371 C 188.7,168.55 188.706,168.63 188.846,168.63 C 188.916,168.63 188.936,168.6 188.975,168.54 C 189.085,168.381 189.453,167.808 190.26,167.808 C 190.778,167.808 191.027,168.291 191.107,168.48 C 191.266,168.849 191.3,169.237 191.3,169.735 C 191.3,170.084 191.287,170.681 191.047,171.1 C 190.808,171.489 190.439,171.727 189.981,171.727 C 189.254,171.727 188.686,171.209 188.516,170.632 C 188.546,170.642 188.576,170.708 188.685,170.708 C 189.014,170.708 189.199,170.431 189.199,170.164 C 189.199,169.925 189.024,169.708 188.685,169.708 C 188.546,169.708 188.199,169.774 188.199,170.204 C 188.199,171.061 188.886,172.027 190,172.027 C 191.156,172.027 192.199,171.071 192.199,169.805 L 192.2,169.806 z"
       style="fill:#000000;fill-rule:evenodd;stroke:none"
       id="path68" />
    <path
       d="M 181.585,210.508 C 181.724,210.508 181.9,210.517 181.9,210.317 C 181.9,210.118 181.719,210.108 181.585,210.108 L 176.155,210.108 C 176.016,210.108 175.799,210.118 175.799,210.317 C 175.799,210.516 176.004,210.508 176.155,210.508 L 181.585,210.508 z"
       style="fill:#000000;fill-rule:evenodd;stroke:none"
       id="path70" />
    <path
       d="M 185.7,206.432 C 185.7,206.193 185.729,206.208 185.5,206.208 C 184.882,206.81 184.006,206.808 183.687,206.808 L 183.687,207.108 C 183.887,207.108 184.479,207.119 185,206.86 L 185,212.021 C 185,212.38 184.97,212.508 184.065,212.508 L 183.746,212.508 L 183.746,212.808 C 184.095,212.778 184.961,212.778 185.36,212.778 C 185.759,212.778 186.625,212.778 186.974,212.808 L 186.974,212.508 L 186.655,212.508 C 185.758,212.508 185.699,212.396 185.699,212.021 L 185.7,206.432 z"
       style="fill:#000000;fill-rule:evenodd;stroke:none"
       id="path72" />
    <path
       d="M 192.4,209.62 C 192.4,208.823 192.348,208.026 191.984,207.289 C 191.526,206.333 190.709,206.208 190.29,206.208 C 189.692,206.208 188.965,206.459 188.557,207.358 C 188.238,208.045 188.2,208.823 188.2,209.62 C 188.2,210.367 188.239,211.264 188.637,212.021 C 189.065,212.828 189.793,213.027 190.281,213.027 C 190.819,213.027 191.576,212.818 192.014,211.871 C 192.333,211.184 192.4,210.407 192.4,209.619 L 192.4,209.62 z M 190.281,212.827 C 189.892,212.827 189.305,212.574 189.125,211.602 C 189.015,211.004 189,210.088 189,209.5 C 189,208.862 189.015,208.205 189.095,207.667 C 189.284,206.481 190.031,206.408 190.281,206.408 C 190.61,206.408 191.267,206.585 191.457,207.558 C 191.557,208.116 191.601,208.873 191.601,209.501 C 191.601,210.248 191.557,210.926 191.447,211.563 C 191.298,212.509 190.73,212.828 190.281,212.828 L 190.281,212.827 z"
       style="fill:#000000;fill-rule:evenodd;stroke:none"
       id="path74" />
    <path
       d="M 94.256,127.868 L 307.983,127.868"
       style="fill:none;stroke:#000000;stroke-width:0.39850599"
       id="path76" />
    <path
       d="M 201.12,234.731 L 201.12,21.004"
       style="fill:none;stroke:#000000;stroke-width:0.39850599"
       id="path78" />
    <path
       d="M 209.34,129.562 L 209.34,126.175"
       style="fill:none;stroke:#000000;stroke-width:0.39850599"
       id="path80" />
    <path
       d="M 217.56,129.562 L 217.56,126.175"
       style="fill:none;stroke:#000000;stroke-width:0.39850599"
       id="path82" />
    <path
       d="M 225.781,129.562 L 225.781,126.175"
       style="fill:none;stroke:#000000;stroke-width:0.39850599"
       id="path84" />
    <path
       d="M 234.001,129.562 L 234.001,126.175"
       style="fill:none;stroke:#000000;stroke-width:0.39850599"
       id="path86" />
    <path
       d="M 242.221,129.562 L 242.221,126.175"
       style="fill:none;stroke:#000000;stroke-width:0.39850599"
       id="path88" />
    <path
       d="M 250.442,129.562 L 250.442,126.175"
       style="fill:none;stroke:#000000;stroke-width:0.39850599"
       id="path90" />
    <path
       d="M 258.662,129.562 L 258.662,126.175"
       style="fill:none;stroke:#000000;stroke-width:0.39850599"
       id="path92" />
    <path
       d="M 266.882,129.562 L 266.882,126.175"
       style="fill:none;stroke:#000000;stroke-width:0.39850599"
       id="path94" />
    <path
       d="M 275.102,129.562 L 275.102,126.175"
       style="fill:none;stroke:#000000;stroke-width:0.39850599"
       id="path96" />
    <path
       d="M 283.323,129.562 L 283.323,126.175"
       style="fill:none;stroke:#000000;stroke-width:0.39850599"
       id="path98" />
    <path
       d="M 291.543,129.562 L 291.543,126.175"
       style="fill:none;stroke:#000000;stroke-width:0.39850599"
       id="path100" />
    <path
       d="M 299.763,129.562 L 299.763,126.175"
       style="fill:none;stroke:#000000;stroke-width:0.39850599"
       id="path102" />
    <path
       d="M 307.983,129.562 L 307.983,126.175"
       style="fill:none;stroke:#000000;stroke-width:0.39850599"
       id="path104" />
    <path
       d="M 192.9,129.562 L 192.9,126.175"
       style="fill:none;stroke:#000000;stroke-width:0.39850599"
       id="path106" />
    <path
       d="M 184.679,129.562 L 184.679,126.175"
       style="fill:none;stroke:#000000;stroke-width:0.39850599"
       id="path108" />
    <path
       d="M 176.459,129.562 L 176.459,126.175"
       style="fill:none;stroke:#000000;stroke-width:0.39850599"
       id="path110" />
    <path
       d="M 168.239,129.562 L 168.239,126.175"
       style="fill:none;stroke:#000000;stroke-width:0.39850599"
       id="path112" />
    <path
       d="M 160.019,129.562 L 160.019,126.175"
       style="fill:none;stroke:#000000;stroke-width:0.39850599"
       id="path114" />
    <path
       d="M 151.798,129.562 L 151.798,126.175"
       style="fill:none;stroke:#000000;stroke-width:0.39850599"
       id="path116" />
    <path
       d="M 143.578,129.562 L 143.578,126.175"
       style="fill:none;stroke:#000000;stroke-width:0.39850599"
       id="path118" />
    <path
       d="M 135.358,129.562 L 135.358,126.175"
       style="fill:none;stroke:#000000;stroke-width:0.39850599"
       id="path120" />
    <path
       d="M 127.138,129.562 L 127.138,126.175"
       style="fill:none;stroke:#000000;stroke-width:0.39850599"
       id="path122" />
    <path
       d="M 118.917,129.562 L 118.917,126.175"
       style="fill:none;stroke:#000000;stroke-width:0.39850599"
       id="path124" />
    <path
       d="M 110.697,129.562 L 110.697,126.175"
       style="fill:none;stroke:#000000;stroke-width:0.39850599"
       id="path126" />
    <path
       d="M 102.477,129.562 L 102.477,126.175"
       style="fill:none;stroke:#000000;stroke-width:0.39850599"
       id="path128" />
    <path
       d="M 94.256,129.562 L 94.256,126.175"
       style="fill:none;stroke:#000000;stroke-width:0.39850599"
       id="path130" />
    <path
       d="M 202.814,119.648 L 199.427,119.648"
       style="fill:none;stroke:#000000;stroke-width:0.39850599"
       id="path132" />
    <path
       d="M 202.814,111.427 L 199.427,111.427"
       style="fill:none;stroke:#000000;stroke-width:0.39850599"
       id="path134" />
    <path
       d="M 202.814,103.207 L 199.427,103.207"
       style="fill:none;stroke:#000000;stroke-width:0.39850599"
       id="path136" />
    <path
       d="M 202.814,94.987 L 199.427,94.987"
       style="fill:none;stroke:#000000;stroke-width:0.39850599"
       id="path138" />
    <path
       d="M 202.814,86.767 L 199.427,86.767"
       style="fill:none;stroke:#000000;stroke-width:0.39850599"
       id="path140" />
    <path
       d="M 202.814,78.546 L 199.427,78.546"
       style="fill:none;stroke:#000000;stroke-width:0.39850599"
       id="path142" />
    <path
       d="M 202.814,70.326 L 199.427,70.326"
       style="fill:none;stroke:#000000;stroke-width:0.39850599"
       id="path144" />
    <path
       d="M 202.814,62.106 L 199.427,62.106"
       style="fill:none;stroke:#000000;stroke-width:0.39850599"
       id="path146" />
    <path
       d="M 202.814,53.886 L 199.427,53.886"
       style="fill:none;stroke:#000000;stroke-width:0.39850599"
       id="path148" />
    <path
       d="M 202.814,45.665 L 199.427,45.665"
       style="fill:none;stroke:#000000;stroke-width:0.39850599"
       id="path150" />
    <path
       d="M 202.814,37.4449 L 199.427,37.4449"
       style="fill:none;stroke:#000000;stroke-width:0.39850599"
       id="path152" />
    <path
       d="M 202.814,29.225 L 199.427,29.225"
       style="fill:none;stroke:#000000;stroke-width:0.39850599"
       id="path154" />
    <path
       d="M 202.814,21.004 L 199.427,21.004"
       style="fill:none;stroke:#000000;stroke-width:0.39850599"
       id="path156" />
    <path
       d="M 202.814,136.088 L 199.427,136.088"
       style="fill:none;stroke:#000000;stroke-width:0.39850599"
       id="path158" />
    <path
       d="M 202.814,144.308 L 199.427,144.308"
       style="fill:none;stroke:#000000;stroke-width:0.39850599"
       id="path160" />
    <path
       d="M 202.814,152.529 L 199.427,152.529"
       style="fill:none;stroke:#000000;stroke-width:0.39850599"
       id="path162" />
    <path
       d="M 202.814,160.749 L 199.427,160.749"
       style="fill:none;stroke:#000000;stroke-width:0.39850599"
       id="path164" />
    <path
       d="M 202.814,168.969 L 199.427,168.969"
       style="fill:none;stroke:#000000;stroke-width:0.39850599"
       id="path166" />
    <path
       d="M 202.814,177.19 L 199.427,177.19"
       style="fill:none;stroke:#000000;stroke-width:0.39850599"
       id="path168" />
    <path
       d="M 202.814,185.41 L 199.427,185.41"
       style="fill:none;stroke:#000000;stroke-width:0.39850599"
       id="path170" />
    <path
       d="M 202.814,193.63 L 199.427,193.63"
       style="fill:none;stroke:#000000;stroke-width:0.39850599"
       id="path172" />
    <path
       d="M 202.814,201.85 L 199.427,201.85"
       style="fill:none;stroke:#000000;stroke-width:0.39850599"
       id="path174" />
    <path
       d="M 202.814,210.071 L 199.427,210.071"
       style="fill:none;stroke:#000000;stroke-width:0.39850599"
       id="path176" />
    <path
       d="M 202.814,218.291 L 199.427,218.291"
       style="fill:none;stroke:#000000;stroke-width:0.39850599"
       id="path178" />
    <path
       d="M 202.814,226.511 L 199.427,226.511"
       style="fill:none;stroke:#000000;stroke-width:0.39850599"
       id="path180" />
    <path
       d="M 202.814,234.731 L 199.427,234.731"
       style="fill:none;stroke:#000000;stroke-width:0.39850599"
       id="path182" />
    <path
       d="M 215.446,15.384 C 214.973,17.439 214.051,17.987 213.429,17.987 C 212.831,17.987 212.665,17.514 212.665,17.452 C 212.665,17.4399 212.676,17.4269 212.756,17.415 C 213.142,17.353 213.3,17.017 213.3,16.817 C 213.3,16.555 213.097,16.409 212.868,16.409 C 212.719,16.409 212.2,16.485 212.2,17.191 C 212.2,17.839 212.725,18.246 213.428,18.246 C 214.723,18.246 215.856,16.9709 216.168,15.746 L 217.388,10.839 C 217.4,10.764 217.425,10.702 217.425,10.665 C 217.425,10.528 217.325,10.309 217.076,10.309 C 216.702,10.309 216.615,10.696 216.59,10.8019 L 215.681,14.463 C 215.594,14.824 215.096,15.545 214.361,15.545 C 213.801,15.545 213.699,15.012 213.699,14.612 C 213.699,13.852 214.104,12.732 214.411,11.8849 C 214.511,11.623 214.599,11.449 214.599,11.213 C 214.599,10.59 214.177,10.172 213.627,10.172 C 212.469,10.172 212.033,12.046 212.033,12.1219 C 212.033,12.2469 212.158,12.2469 212.22,12.2469 C 212.382,12.2469 212.394,12.222 212.444,12.048 C 212.544,11.662 212.88,10.472 213.602,10.472 C 213.739,10.472 213.899,10.5099 213.899,10.84 C 213.899,11.139 213.765,11.475 213.577,11.961 C 213.253,12.8329 212.899,13.754 212.899,14.402 C 212.899,15.485 213.637,15.847 214.324,15.847 C 214.897,15.847 215.283,15.548 215.445,15.386 L 215.446,15.384 z"
       style="fill:#000000;fill-rule:evenodd;stroke:none"
       id="path184" />
    <path
       d="M 220.786,13.408 C 221.023,13.408 221.085,13.379 221.122,13.23 C 221.147,13.155 221.2,12.881 221.2,12.831 C 221.2,12.6819 221.096,12.7079 220.91,12.7079 L 218.482,12.7079 C 218.233,12.7079 218.208,12.6819 218.158,12.844 C 218.133,12.9189 218,13.155 218,13.218 C 218,13.3799 218.121,13.409 218.395,13.409 L 220.786,13.408 z"
       style="fill:#000000;fill-rule:evenodd;stroke:none"
       id="path186" />
    <path
       d="M 227.515,11.038 C 227.565,10.864 227.565,10.839 227.565,10.777 C 227.565,10.515 227.353,10.421 227.229,10.421 C 226.83,10.421 226.743,10.873 226.731,10.939 C 226.494,10.404 226.096,10.172 225.697,10.172 C 224.315,10.172 222.9,12.082 222.9,13.916 C 222.9,14.975 223.452,15.8459 224.352,15.8459 C 224.8,15.8459 225.348,15.584 225.846,14.974 C 225.983,15.584 226.444,15.8459 226.88,15.8459 C 227.341,15.8459 227.602,15.535 227.789,15.149 C 228.013,14.676 228.163,13.9529 228.163,13.929 C 228.163,13.804 228.063,13.804 227.976,13.804 C 227.827,13.804 227.814,13.816 227.739,14.09 C 227.565,14.787 227.328,15.546 226.905,15.546 C 226.581,15.546 226.581,15.227 226.581,15.061 C 226.581,14.974 226.581,14.775 226.668,14.426 L 227.515,11.038 z M 225.933,14.164 C 225.833,14.563 225.061,15.545 224.376,15.545 C 223.791,15.545 223.699,14.8279 223.699,14.463 C 223.699,13.84 224.08,12.383 224.301,11.86 C 224.612,11.1 225.185,10.4709 225.696,10.4709 C 226.244,10.4709 226.555,11.1219 226.555,11.6479 C 226.555,11.673 226.543,11.735 226.518,11.81 L 225.933,14.164 z"
       style="fill:#000000;fill-rule:evenodd;stroke:none"
       id="path188" />
    <path
       d="M 233.703,10.652 C 233.205,10.777 233.2,11.237 233.2,11.25 C 233.2,11.412 233.313,11.608 233.641,11.608 C 233.865,11.608 234.2,11.444 234.2,10.988 C 234.2,10.353 233.512,10.171 233.167,10.171 C 232.482,10.171 232.071,10.805 231.947,11.05 C 231.673,10.303 231.063,10.171 230.751,10.171 C 229.506,10.171 228.873,11.83 228.873,12.121 C 228.873,12.246 228.971,12.246 229.02,12.246 C 229.182,12.246 229.182,12.2339 229.244,12.034 C 229.58,10.963 230.228,10.4709 230.726,10.4709 C 231.087,10.4709 231.324,10.7599 231.324,11.262 C 231.324,11.561 231.175,12.171 231.062,12.632 C 230.925,13.1429 230.913,13.192 230.776,13.765 C 230.577,14.574 230.315,15.545 229.568,15.545 C 229.531,15.545 229.232,15.571 229.02,15.397 C 229.394,15.297 229.5,14.986 229.5,14.799 C 229.5,14.475 229.242,14.408 229.083,14.408 C 228.772,14.408 228.5,14.667 228.5,15.073 C 228.5,15.559 229.004,15.845 229.556,15.845 C 230.154,15.845 230.565,15.3719 230.776,14.998 C 231.025,15.7079 231.635,15.845 231.959,15.845 C 233.242,15.845 233.826,14.176 233.826,13.9269 C 233.826,13.8019 233.753,13.8019 233.69,13.8019 C 233.541,13.8019 233.528,13.814 233.466,14.014 C 233.13,15.085 232.507,15.545 231.984,15.545 C 231.735,15.545 231.399,15.4 231.399,14.774 C 231.399,14.475 231.536,13.9399 231.636,13.516 C 231.773,12.993 231.96,12.2209 232.059,11.81 C 232.233,11.162 232.57,10.4709 233.155,10.4709 C 233.192,10.4709 233.504,10.4709 233.703,10.652 z"
       style="fill:#000000;fill-rule:evenodd;stroke:none"
       id="path190" />
    <path
       d="M 237.822,13.9269 C 237.822,13.8019 237.722,13.8019 237.635,13.8019 C 237.473,13.8019 237.473,13.827 237.423,14.014 C 237.323,14.375 236.987,15.545 236.265,15.545 C 236.165,15.545 236,15.534 236,15.222 C 236,14.8979 236.158,14.487 236.315,14.026 C 236.589,13.316 236.85,12.606 237.112,11.896 C 237.237,11.535 237.3,11.435 237.3,11.199 C 237.3,10.514 236.807,10.17 236.328,10.17 C 235.157,10.17 234.734,12.0569 234.734,12.12 C 234.734,12.245 234.859,12.245 234.921,12.245 C 235.083,12.245 235.095,12.22 235.145,12.046 C 235.257,11.6349 235.581,10.47 236.303,10.47 C 236.44,10.47 236.6,10.533 236.6,10.825 C 236.6,11.124 236.449,11.485 236.353,11.722 C 236.216,12.108 236.079,12.469 235.979,12.756 C 235.817,13.167 235.668,13.5779 235.518,13.989 C 235.344,14.462 235.3,14.599 235.3,14.848 C 235.3,15.334 235.597,15.844 236.24,15.844 C 237.411,15.844 237.822,13.976 237.822,13.926 L 237.822,13.9269 z M 237.7,7.94995 C 237.7,7.63898 237.486,7.508 237.336,7.508 C 237.074,7.508 236.7,7.76996 236.7,8.13599 C 236.7,8.44696 236.972,8.508 237.162,8.508 C 237.411,8.508 237.7,8.28699 237.7,7.94995 z"
       style="fill:#000000;fill-rule:evenodd;stroke:none"
       id="path192" />
    <path
       d="M 242.207,11.088 C 241.808,11.138 241.725,11.474 241.725,11.599 C 241.725,11.736 241.797,11.909 242.083,11.909 C 242.295,11.909 242.618,11.7679 242.618,11.263 C 242.618,10.6899 242.107,10.172 241.285,10.172 C 239.828,10.172 239.3,11.389 239.3,12.048 C 239.3,13.007 240.122,13.181 240.476,13.256 C 241.024,13.381 241.6,13.5049 241.6,14.178 C 241.6,14.577 241.26,15.547 239.965,15.547 C 239.691,15.547 238.969,15.487 238.769,14.876 C 239.404,14.814 239.389,14.291 239.389,14.266 C 239.389,14.029 239.233,13.9109 238.981,13.9109 C 238.695,13.9109 238.346,14.111 238.346,14.64 C 238.346,15.4 239.068,15.848 239.952,15.848 C 241.82,15.848 242.299,14.329 242.299,13.756 C 242.299,12.673 241.324,12.448 240.811,12.336 C 240.462,12.261 239.999,12.162 239.999,11.626 C 239.999,11.327 240.264,10.474 241.272,10.474 C 241.608,10.474 242.069,10.6 242.206,11.0909 L 242.207,11.088 z"
       style="fill:#000000;fill-rule:evenodd;stroke:none"
       id="path194" />
    <path
       d="M 315.703,112.852 C 315.205,112.977 315.2,113.437 315.2,113.45 C 315.2,113.612 315.313,113.808 315.641,113.808 C 315.865,113.808 316.2,113.644 316.2,113.188 C 316.2,112.553 315.512,112.371 315.167,112.371 C 314.482,112.371 314.071,113.005 313.947,113.25 C 313.673,112.503 313.063,112.371 312.751,112.371 C 311.506,112.371 310.873,114.03 310.873,114.321 C 310.873,114.446 310.971,114.446 311.02,114.446 C 311.182,114.446 311.182,114.434 311.244,114.234 C 311.58,113.163 312.228,112.671 312.726,112.671 C 313.087,112.671 313.324,112.96 313.324,113.462 C 313.324,113.761 313.175,114.371 313.062,114.832 C 312.925,115.343 312.913,115.392 312.776,115.965 C 312.577,116.774 312.315,117.745 311.568,117.745 C 311.531,117.745 311.232,117.771 311.02,117.597 C 311.394,117.497 311.5,117.186 311.5,116.999 C 311.5,116.675 311.242,116.608 311.083,116.608 C 310.772,116.608 310.5,116.867 310.5,117.273 C 310.5,117.759 311.004,118.045 311.556,118.045 C 312.154,118.045 312.565,117.572 312.776,117.198 C 313.025,117.908 313.635,118.045 313.959,118.045 C 315.242,118.045 315.826,116.376 315.826,116.127 C 315.826,116.002 315.753,116.002 315.69,116.002 C 315.541,116.002 315.528,116.014 315.466,116.214 C 315.13,117.285 314.507,117.745 313.984,117.745 C 313.735,117.745 313.399,117.6 313.399,116.974 C 313.399,116.675 313.536,116.14 313.636,115.716 C 313.773,115.193 313.96,114.421 314.059,114.01 C 314.233,113.362 314.57,112.671 315.155,112.671 C 315.192,112.671 315.504,112.671 315.703,112.852 z"
       style="fill:#000000;fill-rule:evenodd;stroke:none"
       id="path196" />
    <path
       d="M 319.386,115.608 C 319.623,115.608 319.685,115.579 319.722,115.43 C 319.747,115.355 319.8,115.081 319.8,115.031 C 319.8,114.882 319.696,114.908 319.51,114.908 L 317.082,114.908 C 316.833,114.908 316.808,114.882 316.758,115.044 C 316.733,115.119 316.6,115.355 316.6,115.418 C 316.6,115.58 316.721,115.609 316.995,115.609 L 319.386,115.608 z"
       style="fill:#000000;fill-rule:evenodd;stroke:none"
       id="path198" />
    <path
       d="M 326.115,113.238 C 326.165,113.064 326.165,113.039 326.165,112.977 C 326.165,112.715 325.953,112.621 325.829,112.621 C 325.43,112.621 325.343,113.073 325.331,113.139 C 325.094,112.604 324.696,112.372 324.297,112.372 C 322.915,112.372 321.5,114.282 321.5,116.116 C 321.5,117.175 322.052,118.046 322.952,118.046 C 323.4,118.046 323.948,117.784 324.446,117.174 C 324.583,117.784 325.044,118.046 325.48,118.046 C 325.941,118.046 326.202,117.735 326.389,117.349 C 326.613,116.876 326.763,116.153 326.763,116.129 C 326.763,116.004 326.663,116.004 326.576,116.004 C 326.427,116.004 326.414,116.016 326.339,116.29 C 326.165,116.987 325.928,117.746 325.505,117.746 C 325.181,117.746 325.181,117.427 325.181,117.261 C 325.181,117.174 325.181,116.975 325.268,116.626 L 326.115,113.238 z M 324.533,116.364 C 324.433,116.763 323.661,117.745 322.976,117.745 C 322.391,117.745 322.299,117.028 322.299,116.663 C 322.299,116.04 322.68,114.583 322.901,114.06 C 323.212,113.3 323.785,112.671 324.296,112.671 C 324.844,112.671 325.155,113.322 325.155,113.848 C 325.155,113.873 325.143,113.935 325.118,114.01 L 324.533,116.364 z"
       style="fill:#000000;fill-rule:evenodd;stroke:none"
       id="path200" />
    <path
       d="M 332.303,112.852 C 331.805,112.977 331.8,113.437 331.8,113.45 C 331.8,113.612 331.913,113.808 332.241,113.808 C 332.465,113.808 332.8,113.644 332.8,113.188 C 332.8,112.553 332.112,112.371 331.767,112.371 C 331.082,112.371 330.671,113.005 330.547,113.25 C 330.273,112.503 329.663,112.371 329.351,112.371 C 328.106,112.371 327.473,114.03 327.473,114.321 C 327.473,114.446 327.571,114.446 327.62,114.446 C 327.782,114.446 327.782,114.434 327.844,114.234 C 328.18,113.163 328.828,112.671 329.326,112.671 C 329.687,112.671 329.924,112.96 329.924,113.462 C 329.924,113.761 329.775,114.371 329.662,114.832 C 329.525,115.343 329.513,115.392 329.376,115.965 C 329.177,116.774 328.915,117.745 328.168,117.745 C 328.131,117.745 327.832,117.771 327.62,117.597 C 327.994,117.497 328.1,117.186 328.1,116.999 C 328.1,116.675 327.842,116.608 327.683,116.608 C 327.372,116.608 327.1,116.867 327.1,117.273 C 327.1,117.759 327.604,118.045 328.156,118.045 C 328.754,118.045 329.165,117.572 329.376,117.198 C 329.625,117.908 330.235,118.045 330.559,118.045 C 331.842,118.045 332.426,116.376 332.426,116.127 C 332.426,116.002 332.353,116.002 332.29,116.002 C 332.141,116.002 332.128,116.014 332.066,116.214 C 331.73,117.285 331.107,117.745 330.584,117.745 C 330.335,117.745 329.999,117.6 329.999,116.974 C 329.999,116.675 330.136,116.14 330.236,115.716 C 330.373,115.193 330.56,114.421 330.659,114.01 C 330.833,113.362 331.17,112.671 331.755,112.671 C 331.792,112.671 332.104,112.671 332.303,112.852 z"
       style="fill:#000000;fill-rule:evenodd;stroke:none"
       id="path202" />
    <path
       d="M 336.422,116.127 C 336.422,116.002 336.322,116.002 336.235,116.002 C 336.073,116.002 336.073,116.027 336.023,116.214 C 335.923,116.575 335.587,117.745 334.865,117.745 C 334.765,117.745 334.6,117.734 334.6,117.422 C 334.6,117.098 334.758,116.687 334.915,116.226 C 335.189,115.516 335.45,114.806 335.712,114.096 C 335.837,113.735 335.9,113.635 335.9,113.399 C 335.9,112.714 335.407,112.37 334.928,112.37 C 333.757,112.37 333.334,114.257 333.334,114.32 C 333.334,114.445 333.459,114.445 333.521,114.445 C 333.683,114.445 333.695,114.42 333.745,114.246 C 333.857,113.835 334.181,112.67 334.903,112.67 C 335.04,112.67 335.2,112.733 335.2,113.025 C 335.2,113.324 335.049,113.685 334.953,113.922 C 334.816,114.308 334.679,114.669 334.579,114.956 C 334.417,115.367 334.268,115.778 334.118,116.189 C 333.944,116.662 333.9,116.799 333.9,117.048 C 333.9,117.534 334.197,118.044 334.84,118.044 C 336.011,118.044 336.422,116.176 336.422,116.126 L 336.422,116.127 z M 336.3,110.15 C 336.3,109.839 336.086,109.708 335.936,109.708 C 335.674,109.708 335.3,109.97 335.3,110.336 C 335.3,110.647 335.572,110.708 335.762,110.708 C 336.011,110.708 336.3,110.487 336.3,110.15 z"
       style="fill:#000000;fill-rule:evenodd;stroke:none"
       id="path204" />
    <path
       d="M 340.807,113.288 C 340.408,113.338 340.325,113.674 340.325,113.799 C 340.325,113.936 340.397,114.109 340.683,114.109 C 340.895,114.109 341.218,113.968 341.218,113.463 C 341.218,112.89 340.707,112.372 339.885,112.372 C 338.428,112.372 337.9,113.589 337.9,114.248 C 337.9,115.207 338.722,115.381 339.076,115.456 C 339.624,115.581 340.2,115.705 340.2,116.378 C 340.2,116.777 339.86,117.747 338.565,117.747 C 338.291,117.747 337.569,117.687 337.369,117.076 C 338.004,117.014 337.989,116.491 337.989,116.466 C 337.989,116.229 337.833,116.111 337.581,116.111 C 337.295,116.111 336.946,116.311 336.946,116.84 C 336.946,117.6 337.668,118.048 338.552,118.048 C 340.42,118.048 340.899,116.529 340.899,115.956 C 340.899,114.873 339.924,114.648 339.411,114.536 C 339.062,114.461 338.599,114.362 338.599,113.826 C 338.599,113.527 338.864,112.674 339.872,112.674 C 340.208,112.674 340.669,112.8 340.806,113.291 L 340.807,113.288 z"
       style="fill:#000000;fill-rule:evenodd;stroke:none"
       id="path206" />
    <path
       d="M 231.127,166.738 C 231.127,166.705 231.127,166.683 230.941,166.497 C 229.571,165.116 229.2,163.045 229.2,161.368 C 229.2,159.461 229.621,157.554 230.985,156.184 C 231.127,156.052 231.127,156.031 231.127,155.998 C 231.127,155.921 231.083,155.908 231.017,155.908 C 230.907,155.908 229.921,156.647 229.275,158.026 C 228.716,159.231 228.6,160.448 228.6,161.368 C 228.6,162.223 228.718,163.549 229.308,164.787 C 229.966,166.135 230.908,166.808 231.018,166.808 C 231.084,166.808 231.128,166.787 231.128,166.738 L 231.127,166.738 z"
       style="fill:#000000;fill-rule:evenodd;stroke:none"
       id="path208" />
    <path
       d="M 236.7,160.601 C 236.7,159.724 236.65,158.848 236.303,158.037 C 235.799,156.985 234.9,156.808 234.44,156.808 C 233.782,156.808 232.982,157.093 232.533,158.113 C 232.182,158.869 232.1,159.724 232.1,160.601 C 232.1,161.423 232.146,162.409 232.621,163.242 C 233.092,164.13 233.892,164.349 234.429,164.349 C 235.021,164.349 235.854,164.119 236.336,163.078 C 236.687,162.322 236.7,161.467 236.7,160.601 z M 234.429,164.149 C 234.002,164.149 233.355,163.867 233.158,162.782 C 233.037,162.124 233,161.116 233,160.47 C 233,159.769 233.037,159.045 233.125,158.454 C 233.333,157.15 234.155,157.009 234.429,157.009 C 234.791,157.009 235.514,157.213 235.722,158.334 C 235.832,158.948 235.8,159.781 235.8,160.471 C 235.8,161.293 235.831,162.038 235.711,162.74 C 235.547,163.781 234.922,164.151 234.429,164.151 L 234.429,164.149 z"
       style="fill:#000000;fill-rule:evenodd;stroke:none"
       id="path210" />
    <path
       d="M 239.4,164.097 C 239.4,163.374 239.136,162.908 238.723,162.908 C 238.361,162.908 238.142,163.2 238.142,163.527 C 238.142,163.823 238.361,164.108 238.723,164.108 C 238.855,164.108 238.997,164.064 239.107,163.966 C 239.14,163.944 239.151,163.933 239.162,163.933 C 239.173,163.933 239.2,163.944 239.2,164.097 C 239.2,164.908 238.808,165.566 238.438,165.927 C 238.317,166.048 238.317,166.069 238.317,166.102 C 238.317,166.179 238.372,166.207 238.427,166.207 C 238.548,166.207 239.4,165.369 239.4,164.096 L 239.4,164.097 z"
       style="fill:#000000;fill-rule:evenodd;stroke:none"
       id="path212" />
    <path
       d="M 247.1,160.601 C 247.1,159.724 247.05,158.848 246.703,158.037 C 246.199,156.985 245.3,156.808 244.84,156.808 C 244.182,156.808 243.382,157.093 242.933,158.113 C 242.582,158.869 242.5,159.724 242.5,160.601 C 242.5,161.423 242.546,162.409 243.021,163.242 C 243.492,164.13 244.292,164.349 244.829,164.349 C 245.421,164.349 246.254,164.119 246.736,163.078 C 247.087,162.322 247.1,161.467 247.1,160.601 z M 244.829,164.149 C 244.402,164.149 243.755,163.867 243.558,162.782 C 243.437,162.124 243.4,161.116 243.4,160.47 C 243.4,159.769 243.437,159.045 243.525,158.454 C 243.733,157.15 244.555,157.009 244.829,157.009 C 245.191,157.009 245.914,157.213 246.122,158.334 C 246.232,158.948 246.2,159.781 246.2,160.471 C 246.2,161.293 246.231,162.038 246.111,162.74 C 245.947,163.781 245.322,164.151 244.829,164.151 L 244.829,164.149 z"
       style="fill:#000000;fill-rule:evenodd;stroke:none"
       id="path214" />
    <path
       d="M 250.8,161.368 C 250.8,160.513 250.691,159.187 250.144,157.949 C 249.486,156.601 248.544,155.908 248.434,155.908 C 248.368,155.908 248.324,155.944 248.324,155.998 C 248.324,156.031 248.324,156.053 248.532,156.25 C 249.606,157.335 250.199,159.077 250.199,161.368 C 250.199,163.242 249.801,165.171 248.466,166.552 C 248.324,166.684 248.324,166.705 248.324,166.738 C 248.324,166.804 248.368,166.808 248.434,166.808 C 248.544,166.808 249.53,166.077 250.176,164.711 C 250.735,163.506 250.799,162.289 250.799,161.368 L 250.8,161.368 z"
       style="fill:#000000;fill-rule:evenodd;stroke:none"
       id="path216" />
    <path
       d="M 231.1,174.061 C 231.1,173.02 230.485,172.287 229.578,172.287 C 228.219,172.287 226.8,173.832 226.8,175.42 C 226.8,176.549 227.493,177.228 228.405,177.228 C 229.764,177.228 231.1,175.672 231.1,174.061 z M 228.405,177.029 C 227.978,177.029 227.5,176.677 227.5,175.859 C 227.5,175.311 227.817,174.095 228.208,173.503 C 228.613,172.835 229.139,172.488 229.567,172.488 C 230.104,172.488 230.4,172.978 230.4,173.635 C 230.4,174.106 230.163,175.235 229.819,175.893 C 229.501,176.496 228.942,177.03 228.405,177.03 L 228.405,177.029 z"
       style="fill:#000000;fill-rule:evenodd;stroke:none"
       id="path218" />
    <path
       d="M 234.027,173.952 C 234.038,173.919 234.531,172.488 235.474,172.488 C 235.529,172.488 235.836,172.506 236.055,172.659 C 235.671,172.78 235.6,173.13 235.6,173.185 C 235.6,173.327 235.708,173.508 236.022,173.508 C 236.219,173.508 236.5,173.362 236.5,172.955 C 236.5,172.385 235.827,172.288 235.485,172.288 C 234.729,172.288 234.334,172.82 234.159,173.054 C 234.038,172.473 233.611,172.288 233.249,172.288 C 232.854,172.288 232.635,172.53 232.46,172.846 C 232.252,173.284 232.109,173.931 232.109,173.953 C 232.109,174.063 232.219,174.063 232.273,174.063 C 232.415,174.063 232.426,174.052 232.481,173.811 C 232.678,173.044 232.886,172.489 233.226,172.489 C 233.511,172.489 233.511,172.82 233.511,172.945 C 233.511,173.12 233.478,173.329 233.434,173.504 L 232.612,176.792 C 232.59,176.858 232.579,176.913 232.579,176.945 C 232.579,177.066 232.667,177.23 232.886,177.23 C 233.215,177.23 233.291,176.912 233.313,176.825 L 234.027,173.952 z"
       style="fill:#000000;fill-rule:evenodd;stroke:none"
       id="path220" />
    <path
       d="M 239.427,175.541 C 239.427,175.431 239.339,175.431 239.263,175.431 C 239.121,175.431 239.121,175.453 239.077,175.617 C 238.989,175.935 238.693,177.028 238.058,177.028 C 237.97,177.028 237.8,177.016 237.8,176.68 C 237.8,176.395 237.951,176.033 238.101,175.628 C 238.342,175.003 238.572,174.379 238.802,173.754 C 238.912,173.436 238.899,173.349 238.899,173.14 C 238.899,172.537 238.5,172.287 238.111,172.287 C 237.081,172.287 236.708,173.897 236.708,173.951 C 236.708,174.061 236.818,174.061 236.872,174.061 C 237.014,174.061 237.025,174.039 237.069,173.886 C 237.168,173.524 237.453,172.487 238.088,172.487 C 238.209,172.487 238.298,172.545 238.298,172.812 C 238.298,173.075 238.197,173.393 238.132,173.601 C 238.011,173.941 237.891,174.259 237.803,174.511 C 237.661,174.873 237.529,175.234 237.398,175.596 C 237.245,176.012 237.198,176.133 237.198,176.352 C 237.198,176.779 237.462,177.229 238.034,177.229 C 239.064,177.229 239.426,175.585 239.426,175.541 L 239.427,175.541 z M 239.4,170.281 C 239.4,170.007 239.165,169.908 239,169.908 C 238.77,169.908 238.5,170.132 238.5,170.445 C 238.5,170.719 238.704,170.808 238.847,170.808 C 239.066,170.808 239.4,170.599 239.4,170.281 z"
       style="fill:#000000;fill-rule:evenodd;stroke:none"
       id="path222" />
    <path
       d="M 242.804,176.527 L 242.574,177.448 C 242.442,177.996 242.377,178.226 242.07,178.599 C 241.632,179.114 241.193,179.129 241.029,179.129 C 240.887,179.129 240.547,179.114 240.251,178.993 C 240.47,178.905 240.6,178.675 240.6,178.489 C 240.6,178.347 240.502,178.208 240.218,178.208 C 240.021,178.208 239.7,178.343 239.7,178.719 C 239.7,179.157 240.1,179.329 241.007,179.329 C 242.158,179.329 242.991,178.618 243.199,177.799 L 244.394,172.999 C 244.438,172.835 244.438,172.813 244.438,172.769 C 244.438,172.539 244.252,172.509 244.142,172.509 C 244.01,172.509 243.758,172.591 243.715,172.89 C 243.562,172.572 243.266,172.289 242.794,172.289 C 241.567,172.289 240.301,173.899 240.301,175.433 C 240.301,176.364 240.818,177.11 241.643,177.11 C 242.202,177.11 242.673,176.661 242.805,176.529 L 242.804,176.527 z M 243.516,173.667 L 243.023,175.662 C 242.935,176.013 242.267,176.909 241.664,176.909 C 241.072,176.909 241,176.04 241,175.914 C 241,175.388 241.359,174.106 241.61,173.591 C 241.884,172.999 242.366,172.488 242.794,172.488 C 243.452,172.488 243.55,173.425 243.55,173.514 L 243.516,173.667 z"
       style="fill:#000000;fill-rule:evenodd;stroke:none"
       id="path224" />
    <path
       d="M 247.727,175.541 C 247.727,175.431 247.639,175.431 247.563,175.431 C 247.421,175.431 247.421,175.453 247.377,175.617 C 247.289,175.935 246.993,177.028 246.358,177.028 C 246.27,177.028 246.1,177.016 246.1,176.68 C 246.1,176.395 246.251,176.033 246.401,175.628 C 246.642,175.003 246.872,174.379 247.102,173.754 C 247.212,173.436 247.199,173.349 247.199,173.14 C 247.199,172.537 246.8,172.287 246.411,172.287 C 245.381,172.287 245.008,173.897 245.008,173.951 C 245.008,174.061 245.118,174.061 245.172,174.061 C 245.314,174.061 245.325,174.039 245.369,173.886 C 245.468,173.524 245.753,172.487 246.388,172.487 C 246.509,172.487 246.598,172.545 246.598,172.812 C 246.598,173.075 246.497,173.393 246.432,173.601 C 246.311,173.941 246.191,174.259 246.103,174.511 C 245.961,174.873 245.829,175.234 245.698,175.596 C 245.545,176.012 245.498,176.133 245.498,176.352 C 245.498,176.779 245.762,177.229 246.334,177.229 C 247.364,177.229 247.726,175.585 247.726,175.541 L 247.727,175.541 z M 247.7,170.281 C 247.7,170.007 247.465,169.908 247.3,169.908 C 247.07,169.908 246.8,170.132 246.8,170.445 C 246.8,170.719 247.004,170.808 247.147,170.808 C 247.366,170.808 247.7,170.599 247.7,170.281 z"
       style="fill:#000000;fill-rule:evenodd;stroke:none"
       id="path226" />
    <path
       d="M 249.921,175.19 C 249.976,174.949 250.042,174.719 250.096,174.478 C 250.238,173.919 250.238,173.908 250.425,173.59 C 250.578,173.327 251.072,172.487 251.904,172.487 C 252.386,172.487 252.4,172.992 252.4,173.228 C 252.4,173.907 251.924,175.212 251.773,175.65 C 251.631,176.023 251.6,176.121 251.6,176.351 C 251.6,176.833 251.906,177.228 252.43,177.228 C 253.449,177.228 253.822,175.595 253.822,175.54 C 253.822,175.43 253.734,175.43 253.658,175.43 C 253.516,175.43 253.516,175.452 253.472,175.616 C 253.384,175.912 253.088,177.027 252.453,177.027 C 252.223,177.027 252.201,176.841 252.201,176.668 C 252.201,176.394 252.317,176.109 252.409,175.846 C 252.628,175.265 253.101,174.038 253.101,173.402 C 253.101,172.503 252.486,172.286 251.938,172.286 C 251.039,172.286 250.513,172.926 250.371,173.129 C 250.294,172.592 249.922,172.287 249.45,172.287 C 249.055,172.287 248.836,172.529 248.661,172.845 C 248.453,173.283 248.31,173.93 248.31,173.952 C 248.31,174.062 248.42,174.062 248.474,174.062 C 248.616,174.062 248.627,174.051 248.682,173.81 C 248.879,173.043 249.087,172.488 249.427,172.488 C 249.712,172.488 249.712,172.819 249.712,172.944 C 249.712,173.119 249.679,173.328 249.635,173.503 L 248.813,176.791 C 248.791,176.857 248.78,176.912 248.78,176.944 C 248.78,177.065 248.868,177.229 249.087,177.229 C 249.219,177.229 249.405,177.152 249.482,176.944 L 249.921,175.19 z"
       style="fill:#000000;fill-rule:evenodd;stroke:none"
       id="path228" />
    <path
       d="M 207.883,131.813 L 202.529,129.277 L 205.065,134.631 L 204.896,131.644"
       style="fill:#7e7e7e;fill-rule:evenodd;stroke:none"
       id="path230" />
    <path
       d="M 204.896,131.644 C 211.358,138.106 215.095,151.604 225.323,158.766"
       style="fill:none;stroke:#7e7e7e;stroke-width:0.39850599"
       id="path232" />
    <path
       d="M 227.45,86.7079 C 227.45,85.797 226.711,85.058 225.8,85.058 C 224.889,85.058 224.15,85.797 224.15,86.7079 C 224.15,87.619 224.889,88.358 225.8,88.358 C 226.711,88.358 227.45,87.619 227.45,86.7079"
       style="fill:#000000;fill-rule:evenodd;stroke:none"
       id="path234" />
    <path
       d="M 225.781,127.868 L 225.781,86.767 L 201.12,86.767"
       style="fill:none;stroke:#000000;stroke-width:0.79701102;stroke-linecap:round;stroke-miterlimit:4;stroke-dasharray:0.7, 3.18804407;stroke-dashoffset:0"
       id="path236" />
    <path
       d="M 226.921,78.008 L 228.784,78.008 C 230.34,78.008 231.863,76.886 231.863,75.678 C 231.863,74.834 231.14,74.008 229.704,74.008 L 226.153,74.008 C 225.945,74.008 225.824,74.0229 225.824,74.231 C 225.824,74.363 225.923,74.308 226.142,74.308 C 226.284,74.308 226.482,74.3459 226.613,74.3849 C 226.788,74.407 226.854,74.4399 226.854,74.56 C 226.854,74.6039 226.843,74.637 226.81,74.7679 L 225.342,80.653 C 225.232,81.08 225.21,81.2079 224.345,81.2079 C 224.159,81.2079 224.038,81.168 224.038,81.377 C 224.038,81.509 224.17,81.509 224.202,81.509 C 224.509,81.509 225.287,81.476 225.594,81.476 C 225.824,81.476 226.065,81.487 226.295,81.487 C 226.536,81.487 226.777,81.509 227.007,81.509 C 227.084,81.509 227.226,81.509 227.226,81.29 C 227.226,81.1689 227.127,81.209 226.919,81.209 C 226.514,81.209 226.207,81.1689 226.207,80.972 C 226.207,80.9059 226.229,80.851 226.24,80.7859 L 226.921,78.008 z M 227.709,74.779 C 227.808,74.395 227.83,74.308 228.301,74.308 L 229.353,74.308 C 230.263,74.308 230.811,74.619 230.811,75.415 C 230.811,75.842 230.603,76.785 230.197,77.179 C 229.649,77.672 228.992,77.7079 228.509,77.7079 L 226.964,77.7079 L 227.709,74.779 z"
       style="fill:#000000;fill-rule:evenodd;stroke:none"
       id="path238" />
    <path
       d="M 235.727,84.138 C 235.727,84.105 235.727,84.0829 235.541,83.897 C 234.171,82.516 233.8,80.4449 233.8,78.7679 C 233.8,76.861 234.221,74.954 235.585,73.584 C 235.727,73.452 235.727,73.431 235.727,73.3979 C 235.727,73.321 235.683,73.308 235.617,73.308 C 235.507,73.308 234.521,74.047 233.875,75.426 C 233.316,76.631 233.2,77.848 233.2,78.7679 C 233.2,79.623 233.318,80.949 233.908,82.187 C 234.566,83.535 235.508,84.2079 235.618,84.2079 C 235.684,84.2079 235.728,84.187 235.728,84.138 L 235.727,84.138 z"
       style="fill:#000000;fill-rule:evenodd;stroke:none"
       id="path240" />
    <path
       d="M 239.578,77.65 C 240.477,77.3539 241.1,76.587 241.1,75.7209 C 241.1,74.822 240.142,74.207 239.096,74.207 C 237.989,74.207 237.2,74.865 237.2,75.699 C 237.2,76.061 237.422,76.3069 237.715,76.3069 C 238.055,76.3069 238.3,76.049 238.3,75.71 C 238.3,75.162 237.765,75.207 237.595,75.207 C 237.935,74.634 238.658,74.407 239.053,74.407 C 239.502,74.407 240.101,74.663 240.101,75.71 C 240.101,75.842 240.079,76.477 239.798,76.959 C 239.469,77.485 239.097,77.5179 238.823,77.529 C 238.735,77.54 238.472,77.607 238.396,77.607 C 238.308,77.614 238.275,77.621 238.275,77.693 C 238.275,77.814 238.339,77.8069 238.494,77.8069 L 238.976,77.8069 C 239.875,77.8069 240.301,78.555 240.301,79.633 C 240.301,81.123 239.532,81.448 239.042,81.448 C 238.571,81.448 237.749,81.2599 237.365,80.608 C 237.749,80.663 238.101,80.422 238.101,80.0049 C 238.101,79.61 237.799,79.4059 237.475,79.4059 C 237.212,79.4059 236.901,79.556 236.901,80.027 C 236.901,81.024 237.902,81.748 239.075,81.748 C 240.412,81.748 241.401,80.751 241.401,79.633 C 241.401,78.7339 240.714,77.879 239.579,77.649 L 239.578,77.65 z"
       style="fill:#000000;fill-rule:evenodd;stroke:none"
       id="path242" />
    <path
       d="M 244.1,81.4969 C 244.1,80.774 243.836,80.308 243.423,80.308 C 243.061,80.308 242.842,80.6 242.842,80.9269 C 242.842,81.223 243.061,81.508 243.423,81.508 C 243.555,81.508 243.697,81.464 243.807,81.366 C 243.84,81.344 243.851,81.3329 243.862,81.3329 C 243.873,81.3329 243.9,81.344 243.9,81.4969 C 243.9,82.308 243.508,82.9659 243.138,83.327 C 243.017,83.448 243.017,83.469 243.017,83.502 C 243.017,83.579 243.072,83.607 243.127,83.607 C 243.248,83.607 244.1,82.769 244.1,81.496 L 244.1,81.4969 z"
       style="fill:#000000;fill-rule:evenodd;stroke:none"
       id="path244" />
    <path
       d="M 251.7,79.305 C 251.7,78.001 250.81,76.908 249.638,76.908 C 249.094,76.908 248.607,77.082 248.2,77.464 L 248.2,75.327 C 248.43,75.3929 248.81,75.508 249.178,75.508 C 250.526,75.508 251.273,74.477 251.273,74.33 C 251.273,74.264 251.246,74.209 251.184,74.209 C 251.173,74.209 251.151,74.209 251.096,74.2419 C 250.877,74.3409 250.34,74.608 249.606,74.608 C 249.168,74.608 248.664,74.519 248.148,74.253 C 248.06,74.22 248.038,74.22 248.016,74.22 C 247.906,74.22 247.9,74.308 247.9,74.483 L 247.9,77.727 C 247.9,77.924 247.907,78.012 248.06,78.012 C 248.137,78.012 248.159,77.9789 248.202,77.913 C 248.323,77.738 248.728,77.108 249.616,77.108 C 250.186,77.108 250.46,77.64 250.548,77.848 C 250.723,78.253 250.7,78.681 250.7,79.2289 C 250.7,79.613 250.745,80.27 250.482,80.73 C 250.219,81.157 249.814,81.449 249.309,81.449 C 248.509,81.449 247.884,80.865 247.698,80.215 C 247.731,80.226 247.764,80.2079 247.884,80.2079 C 248.246,80.2079 248.399,79.949 248.399,79.7 C 248.399,79.437 248.224,79.108 247.884,79.108 C 247.731,79.108 247.299,79.192 247.299,79.744 C 247.299,80.686 248.073,81.749 249.33,81.749 C 250.601,81.749 251.699,80.697 251.699,79.305 L 251.7,79.305 z"
       style="fill:#000000;fill-rule:evenodd;stroke:none"
       id="path246" />
    <path
       d="M 255.4,78.7679 C 255.4,77.913 255.291,76.587 254.744,75.349 C 254.086,74.001 253.144,73.308 253.034,73.308 C 252.968,73.308 252.924,73.344 252.924,73.3979 C 252.924,73.431 252.924,73.4529 253.132,73.65 C 254.206,74.735 254.799,76.477 254.799,78.7679 C 254.799,80.642 254.401,82.571 253.066,83.952 C 252.924,84.084 252.924,84.105 252.924,84.138 C 252.924,84.204 252.968,84.2079 253.034,84.2079 C 253.144,84.2079 254.13,83.477 254.776,82.111 C 255.335,80.9059 255.399,79.689 255.399,78.7679 L 255.4,78.7679 z"
       style="fill:#000000;fill-rule:evenodd;stroke:none"
       id="path248" />
    <path
       d="M 265.8,57.608 L 267.624,57.608 L 267.624,56.873 C 266.97,56.921 265.408,56.956 264.675,56.956 C 263.942,56.956 262.38,56.921 261.726,56.873 L 261.726,57.608 L 263.5,57.608 L 263.5,67.108 L 261.726,67.108 L 261.726,67.808 C 262.38,67.7599 263.942,67.7599 264.675,67.7599 C 265.408,67.7599 266.97,67.7599 267.624,67.808 L 267.624,67.108 L 265.8,67.108 L 265.8,57.608 z"
       style="fill:#000000;fill-rule:evenodd;stroke:none"
       id="path250" />
    <path
       d="M 131.2,57.608 L 133.024,57.608 L 133.024,56.873 C 132.37,56.921 130.808,56.956 130.075,56.956 C 129.342,56.956 127.78,56.921 127.126,56.873 L 127.126,57.608 L 128.9,57.608 L 128.9,67.108 L 127.126,67.108 L 127.126,67.808 C 127.78,67.7599 129.342,67.7599 130.075,67.7599 C 130.808,67.7599 132.37,67.7599 133.024,67.808 L 133.024,67.108 L 131.2,67.108 L 131.2,57.608 z"
       style="fill:#000000;fill-rule:evenodd;stroke:none"
       id="path252" />
    <path
       d="M 138.7,57.608 L 140.524,57.608 L 140.524,56.873 C 139.87,56.921 138.308,56.956 137.575,56.956 C 136.842,56.956 135.28,56.921 134.626,56.873 L 134.626,57.608 L 136.4,57.608 L 136.4,67.108 L 134.626,67.108 L 134.626,67.808 C 135.28,67.7599 136.842,67.7599 137.575,67.7599 C 138.308,67.7599 139.87,67.7599 140.524,67.808 L 140.524,67.108 L 138.7,67.108 L 138.7,57.608 z"
       style="fill:#000000;fill-rule:evenodd;stroke:none"
       id="path254" />
    <path
       d="M 123.7,188.808 L 125.524,188.808 L 125.524,188.073 C 124.87,188.121 123.308,188.156 122.575,188.156 C 121.842,188.156 120.28,188.121 119.626,188.073 L 119.626,188.808 L 121.4,188.808 L 121.4,198.308 L 119.626,198.308 L 119.626,199.008 C 120.28,198.96 121.842,198.96 122.575,198.96 C 123.308,198.96 124.87,198.96 125.524,199.008 L 125.524,198.308 L 123.7,198.308 L 123.7,188.808 z"
       style="fill:#000000;fill-rule:evenodd;stroke:none"
       id="path256" />
    <path
       d="M 131.2,188.808 L 133.024,188.808 L 133.024,188.073 C 132.37,188.121 130.808,188.156 130.075,188.156 C 129.342,188.156 127.78,188.121 127.126,188.073 L 127.126,188.808 L 128.9,188.808 L 128.9,198.308 L 127.126,198.308 L 127.126,199.008 C 127.78,198.96 129.342,198.96 130.075,198.96 C 130.808,198.96 132.37,198.96 133.024,199.008 L 133.024,198.308 L 131.2,198.308 L 131.2,188.808 z"
       style="fill:#000000;fill-rule:evenodd;stroke:none"
       id="path258" />
    <path
       d="M 138.7,188.808 L 140.524,188.808 L 140.524,188.073 C 139.87,188.121 138.308,188.156 137.575,188.156 C 136.842,188.156 135.28,188.121 134.626,188.073 L 134.626,188.808 L 136.4,188.808 L 136.4,198.308 L 134.626,198.308 L 134.626,199.008 C 135.28,198.96 136.842,198.96 137.575,198.96 C 138.308,198.96 139.87,198.96 140.524,199.008 L 140.524,198.308 L 138.7,198.308 L 138.7,188.808 z"
       style="fill:#000000;fill-rule:evenodd;stroke:none"
       id="path260" />
    <path
       d="M 265.8,188.808 L 267.624,188.808 L 267.624,188.073 C 266.97,188.121 265.408,188.156 264.675,188.156 C 263.942,188.156 262.38,188.121 261.726,188.073 L 261.726,188.808 L 263.5,188.808 L 263.5,198.308 L 261.726,198.308 L 261.726,199.008 C 262.38,198.96 263.942,198.96 264.675,198.96 C 265.408,198.96 266.97,198.96 267.624,199.008 L 267.624,198.308 L 265.8,198.308 L 265.8,188.808 z"
       style="fill:#000000;fill-rule:evenodd;stroke:none"
       id="path262" />
    <path
       d="M 279.896,189.173 C 279.992,188.966 280.055,188.808 281.219,188.808 L 281.5,188.808 L 281.5,188.108 C 280.902,188.112 280.146,188.156 279.72,188.156 C 279.078,188.156 278.243,188.121 277.617,188.073 L 277.617,188.808 C 277.762,188.808 279.02,188.822 279.02,189.013 C 279.02,189.077 278.983,189.156 278.971,189.204 L 275.751,196.457 L 272.356,188.807 L 273.833,188.807 L 273.833,188.072 C 273.232,188.12 271.713,188.155 271.033,188.155 C 270.408,188.155 269.061,188.12 268.5,188.072 L 268.5,188.807 L 269.981,188.807 L 274.38,198.72 C 274.508,199.007 274.571,199.134 275.018,199.134 C 275.273,199.134 275.48,199.134 275.656,198.751 L 279.896,189.173 z"
       style="fill:#000000;fill-rule:evenodd;stroke:none"
       id="path264" />
  </g>
</svg>
